<?xml version="1.0" encoding="utf-8"?>
<!-- Generator: Adobe Illustrator 24.1.3, SVG Export Plug-In . SVG Version: 6.00 Build 0)  -->
<svg version="1.1" id="Layer_1" xmlns="http://www.w3.org/2000/svg" xmlns:xlink="http://www.w3.org/1999/xlink" x="0px" y="0px"
	 viewBox="0 0 899.13 448.7" style="enable-background:new 0 0 899.13 448.7;" xml:space="preserve">
<style type="text/css">
	.st0{fill:#E8928D;}
</style>
<g>
	<g>
		<g>
			<circle class="st0" cx="414.18" cy="39.63" r="8.53"/>
			<circle class="st0" cx="414.18" cy="86.37" r="8.53"/>
			<circle class="st0" cx="414.18" cy="133.1" r="8.53"/>
			<circle class="st0" cx="414.18" cy="179.84" r="8.53"/>
			<circle class="st0" cx="414.18" cy="226.58" r="8.53"/>
		</g>
		<g>
			<circle class="st0" cx="371.88" cy="39.63" r="8.53"/>
			<circle class="st0" cx="371.88" cy="86.37" r="8.53"/>
			<circle class="st0" cx="371.88" cy="133.1" r="8.53"/>
			<circle class="st0" cx="371.88" cy="179.84" r="8.53"/>
			<circle class="st0" cx="371.88" cy="226.58" r="8.53"/>
		</g>
		<g>
			<circle class="st0" cx="329.58" cy="39.63" r="8.53"/>
			<circle class="st0" cx="329.58" cy="86.37" r="8.53"/>
			<circle class="st0" cx="329.58" cy="133.1" r="8.53"/>
			<circle class="st0" cx="329.58" cy="179.84" r="8.53"/>
			<circle class="st0" cx="329.58" cy="226.58" r="8.53"/>
		</g>
		<g>
			<circle class="st0" cx="287.28" cy="39.63" r="8.53"/>
			<circle class="st0" cx="287.28" cy="86.37" r="8.53"/>
			<circle class="st0" cx="287.28" cy="133.1" r="8.53"/>
			<circle class="st0" cx="287.28" cy="179.84" r="8.53"/>
			<circle class="st0" cx="287.28" cy="226.58" r="8.53"/>
		</g>
		<g>
			<circle class="st0" cx="244.98" cy="39.63" r="8.53"/>
			<circle class="st0" cx="244.98" cy="86.37" r="8.53"/>
			<circle class="st0" cx="244.98" cy="133.1" r="8.53"/>
			<circle class="st0" cx="244.98" cy="179.84" r="8.53"/>
			<circle class="st0" cx="244.98" cy="226.58" r="8.53"/>
		</g>
		<g>
			<circle class="st0" cx="202.68" cy="39.63" r="8.53"/>
			<circle class="st0" cx="202.68" cy="86.37" r="8.53"/>
			<circle class="st0" cx="202.68" cy="133.1" r="8.53"/>
			<circle class="st0" cx="202.68" cy="179.84" r="8.53"/>
			<circle class="st0" cx="202.68" cy="226.58" r="8.53"/>
		</g>
		<g>
			<circle class="st0" cx="160.38" cy="39.63" r="8.53"/>
			<circle class="st0" cx="160.38" cy="86.37" r="8.53"/>
			<circle class="st0" cx="160.38" cy="133.1" r="8.53"/>
			<circle class="st0" cx="160.38" cy="179.84" r="8.53"/>
			<circle class="st0" cx="160.38" cy="226.58" r="8.53"/>
		</g>
		<g>
			<circle class="st0" cx="118.08" cy="39.63" r="8.53"/>
			<circle class="st0" cx="118.08" cy="86.37" r="8.53"/>
			<circle class="st0" cx="118.08" cy="133.1" r="8.53"/>
			<circle class="st0" cx="118.08" cy="179.84" r="8.53"/>
			<circle class="st0" cx="118.08" cy="226.58" r="8.53"/>
		</g>
		<g>
			<circle class="st0" cx="75.78" cy="39.63" r="8.53"/>
			<circle class="st0" cx="75.78" cy="86.37" r="8.53"/>
			<circle class="st0" cx="75.78" cy="133.1" r="8.53"/>
			<circle class="st0" cx="75.78" cy="179.84" r="8.53"/>
			<circle class="st0" cx="75.78" cy="226.58" r="8.53"/>
		</g>
		<g>
			<circle class="st0" cx="33.48" cy="39.63" r="8.53"/>
			<circle class="st0" cx="33.48" cy="86.37" r="8.53"/>
			<circle class="st0" cx="33.48" cy="133.1" r="8.53"/>
			<circle class="st0" cx="33.48" cy="179.84" r="8.53"/>
			<circle class="st0" cx="33.48" cy="226.58" r="8.53"/>
		</g>
	</g>
	<g>
		<g>
			<circle class="st0" cx="413.47" cy="226.47" r="8.53"/>
			<circle class="st0" cx="413.47" cy="273.2" r="8.53"/>
			<circle class="st0" cx="413.47" cy="319.94" r="8.53"/>
			<circle class="st0" cx="413.47" cy="366.68" r="8.53"/>
			<circle class="st0" cx="413.47" cy="413.41" r="8.53"/>
		</g>
		<g>
			<circle class="st0" cx="371.17" cy="226.47" r="8.53"/>
			<circle class="st0" cx="371.17" cy="273.2" r="8.53"/>
			<circle class="st0" cx="371.17" cy="319.94" r="8.53"/>
			<circle class="st0" cx="371.17" cy="366.68" r="8.53"/>
			<circle class="st0" cx="371.17" cy="413.41" r="8.53"/>
		</g>
		<g>
			<circle class="st0" cx="328.88" cy="226.47" r="8.53"/>
			<circle class="st0" cx="328.88" cy="273.2" r="8.53"/>
			<circle class="st0" cx="328.88" cy="319.94" r="8.53"/>
			<circle class="st0" cx="328.88" cy="366.68" r="8.53"/>
			<circle class="st0" cx="328.88" cy="413.41" r="8.53"/>
		</g>
		<g>
			<circle class="st0" cx="286.58" cy="226.47" r="8.53"/>
			<circle class="st0" cx="286.58" cy="273.2" r="8.53"/>
			<circle class="st0" cx="286.58" cy="319.94" r="8.53"/>
			<circle class="st0" cx="286.58" cy="366.68" r="8.53"/>
			<circle class="st0" cx="286.58" cy="413.41" r="8.53"/>
		</g>
		<g>
			<circle class="st0" cx="244.28" cy="226.47" r="8.53"/>
			<circle class="st0" cx="244.28" cy="273.2" r="8.53"/>
			<circle class="st0" cx="244.28" cy="319.94" r="8.53"/>
			<circle class="st0" cx="244.28" cy="366.68" r="8.53"/>
			<circle class="st0" cx="244.28" cy="413.41" r="8.53"/>
		</g>
		<g>
			<circle class="st0" cx="201.98" cy="226.47" r="8.53"/>
			<circle class="st0" cx="201.98" cy="273.2" r="8.53"/>
			<circle class="st0" cx="201.98" cy="319.94" r="8.53"/>
			<circle class="st0" cx="201.98" cy="366.68" r="8.53"/>
			<circle class="st0" cx="201.98" cy="413.41" r="8.53"/>
		</g>
		<g>
			<circle class="st0" cx="159.68" cy="226.47" r="8.53"/>
			<circle class="st0" cx="159.68" cy="273.2" r="8.53"/>
			<circle class="st0" cx="159.68" cy="319.94" r="8.53"/>
			<circle class="st0" cx="159.68" cy="366.68" r="8.53"/>
			<circle class="st0" cx="159.68" cy="413.41" r="8.53"/>
		</g>
		<g>
			<circle class="st0" cx="117.38" cy="226.47" r="8.53"/>
			<circle class="st0" cx="117.38" cy="273.2" r="8.53"/>
			<circle class="st0" cx="117.38" cy="319.94" r="8.53"/>
			<circle class="st0" cx="117.38" cy="366.68" r="8.53"/>
			<circle class="st0" cx="117.38" cy="413.41" r="8.53"/>
		</g>
		<g>
			<circle class="st0" cx="75.08" cy="226.47" r="8.53"/>
			<circle class="st0" cx="75.08" cy="273.2" r="8.53"/>
			<circle class="st0" cx="75.08" cy="319.94" r="8.53"/>
			<circle class="st0" cx="75.08" cy="366.68" r="8.53"/>
			<circle class="st0" cx="75.08" cy="413.41" r="8.53"/>
		</g>
		<g>
			<circle class="st0" cx="32.78" cy="226.47" r="8.53"/>
			<circle class="st0" cx="32.78" cy="273.2" r="8.53"/>
			<circle class="st0" cx="32.78" cy="319.94" r="8.53"/>
			<circle class="st0" cx="32.78" cy="366.68" r="8.53"/>
			<circle class="st0" cx="32.78" cy="413.41" r="8.53"/>
		</g>
	</g>
</g>
<g>
	<g>
		<g>
			<circle class="st0" cx="838.87" cy="39.16" r="8.53"/>
			<circle class="st0" cx="838.87" cy="85.89" r="8.53"/>
			<circle class="st0" cx="838.87" cy="132.63" r="8.53"/>
			<circle class="st0" cx="838.87" cy="179.37" r="8.53"/>
			<circle class="st0" cx="838.87" cy="226.1" r="8.53"/>
		</g>
		<g>
			<circle class="st0" cx="796.57" cy="39.16" r="8.53"/>
			<circle class="st0" cx="796.57" cy="85.89" r="8.53"/>
			<circle class="st0" cx="796.57" cy="132.63" r="8.53"/>
			<circle class="st0" cx="796.57" cy="179.37" r="8.53"/>
			<circle class="st0" cx="796.57" cy="226.1" r="8.53"/>
		</g>
		<g>
			<circle class="st0" cx="754.27" cy="39.16" r="8.53"/>
			<circle class="st0" cx="754.27" cy="85.89" r="8.53"/>
			<circle class="st0" cx="754.27" cy="132.63" r="8.53"/>
			<circle class="st0" cx="754.27" cy="179.37" r="8.53"/>
			<circle class="st0" cx="754.27" cy="226.1" r="8.53"/>
		</g>
		<g>
			<circle class="st0" cx="711.97" cy="39.16" r="8.53"/>
			<circle class="st0" cx="711.97" cy="85.89" r="8.53"/>
			<circle class="st0" cx="711.97" cy="132.63" r="8.53"/>
			<circle class="st0" cx="711.97" cy="179.37" r="8.53"/>
			<circle class="st0" cx="711.97" cy="226.1" r="8.53"/>
		</g>
		<g>
			<circle class="st0" cx="669.67" cy="39.16" r="8.53"/>
			<circle class="st0" cx="669.67" cy="85.89" r="8.53"/>
			<circle class="st0" cx="669.67" cy="132.63" r="8.53"/>
			<circle class="st0" cx="669.67" cy="179.37" r="8.53"/>
			<circle class="st0" cx="669.67" cy="226.1" r="8.53"/>
		</g>
		<g>
			<circle class="st0" cx="627.37" cy="39.16" r="8.53"/>
			<circle class="st0" cx="627.37" cy="85.89" r="8.53"/>
			<circle class="st0" cx="627.37" cy="132.63" r="8.53"/>
			<circle class="st0" cx="627.37" cy="179.37" r="8.53"/>
			<circle class="st0" cx="627.37" cy="226.1" r="8.53"/>
		</g>
		<g>
			<circle class="st0" cx="585.07" cy="39.16" r="8.53"/>
			<circle class="st0" cx="585.07" cy="85.89" r="8.53"/>
			<circle class="st0" cx="585.07" cy="132.63" r="8.53"/>
			<circle class="st0" cx="585.07" cy="179.37" r="8.53"/>
			<circle class="st0" cx="585.07" cy="226.1" r="8.53"/>
		</g>
		<g>
			<circle class="st0" cx="542.77" cy="39.16" r="8.53"/>
			<circle class="st0" cx="542.77" cy="85.89" r="8.53"/>
			<circle class="st0" cx="542.77" cy="132.63" r="8.53"/>
			<circle class="st0" cx="542.77" cy="179.37" r="8.53"/>
			<circle class="st0" cx="542.77" cy="226.1" r="8.53"/>
		</g>
		<g>
			<circle class="st0" cx="500.48" cy="39.16" r="8.53"/>
			<circle class="st0" cx="500.48" cy="85.89" r="8.53"/>
			<circle class="st0" cx="500.48" cy="132.63" r="8.53"/>
			<circle class="st0" cx="500.48" cy="179.37" r="8.53"/>
			<circle class="st0" cx="500.48" cy="226.1" r="8.53"/>
		</g>
		<g>
			<circle class="st0" cx="458.18" cy="39.16" r="8.53"/>
			<circle class="st0" cx="458.18" cy="85.89" r="8.53"/>
			<circle class="st0" cx="458.18" cy="132.63" r="8.53"/>
			<circle class="st0" cx="458.18" cy="179.37" r="8.53"/>
			<circle class="st0" cx="458.18" cy="226.1" r="8.53"/>
		</g>
	</g>
	<g>
		<g>
			<circle class="st0" cx="838.17" cy="225.99" r="8.53"/>
			<circle class="st0" cx="838.17" cy="272.73" r="8.53"/>
			<circle class="st0" cx="838.17" cy="319.47" r="8.53"/>
			<circle class="st0" cx="838.17" cy="366.2" r="8.53"/>
			<circle class="st0" cx="838.17" cy="412.94" r="8.53"/>
		</g>
		<g>
			<circle class="st0" cx="795.87" cy="225.99" r="8.53"/>
			<circle class="st0" cx="795.87" cy="272.73" r="8.53"/>
			<circle class="st0" cx="795.87" cy="319.47" r="8.53"/>
			<circle class="st0" cx="795.87" cy="366.2" r="8.53"/>
			<circle class="st0" cx="795.87" cy="412.94" r="8.53"/>
		</g>
		<g>
			<circle class="st0" cx="753.57" cy="225.99" r="8.53"/>
			<circle class="st0" cx="753.57" cy="272.73" r="8.53"/>
			<circle class="st0" cx="753.57" cy="319.47" r="8.53"/>
			<circle class="st0" cx="753.57" cy="366.2" r="8.53"/>
			<circle class="st0" cx="753.57" cy="412.94" r="8.53"/>
		</g>
		<g>
			<circle class="st0" cx="711.27" cy="225.99" r="8.53"/>
			<circle class="st0" cx="711.27" cy="272.73" r="8.53"/>
			<circle class="st0" cx="711.27" cy="319.47" r="8.53"/>
			<circle class="st0" cx="711.27" cy="366.2" r="8.53"/>
			<circle class="st0" cx="711.27" cy="412.94" r="8.53"/>
		</g>
		<g>
			<circle class="st0" cx="668.97" cy="225.99" r="8.53"/>
			<circle class="st0" cx="668.97" cy="272.73" r="8.53"/>
			<circle class="st0" cx="668.97" cy="319.47" r="8.53"/>
			<circle class="st0" cx="668.97" cy="366.2" r="8.53"/>
			<circle class="st0" cx="668.97" cy="412.94" r="8.53"/>
		</g>
		<g>
			<circle class="st0" cx="626.67" cy="225.99" r="8.53"/>
			<circle class="st0" cx="626.67" cy="272.73" r="8.53"/>
			<circle class="st0" cx="626.67" cy="319.47" r="8.53"/>
			<circle class="st0" cx="626.67" cy="366.2" r="8.53"/>
			<circle class="st0" cx="626.67" cy="412.94" r="8.53"/>
		</g>
		<g>
			<circle class="st0" cx="584.37" cy="225.99" r="8.53"/>
			<circle class="st0" cx="584.37" cy="272.73" r="8.53"/>
			<circle class="st0" cx="584.37" cy="319.47" r="8.53"/>
			<circle class="st0" cx="584.37" cy="366.2" r="8.53"/>
			<circle class="st0" cx="584.37" cy="412.94" r="8.53"/>
		</g>
		<g>
			<circle class="st0" cx="542.07" cy="225.99" r="8.53"/>
			<circle class="st0" cx="542.07" cy="272.73" r="8.53"/>
			<circle class="st0" cx="542.07" cy="319.47" r="8.53"/>
			<circle class="st0" cx="542.07" cy="366.2" r="8.53"/>
			<circle class="st0" cx="542.07" cy="412.94" r="8.53"/>
		</g>
		<g>
			<circle class="st0" cx="499.77" cy="225.99" r="8.53"/>
			<circle class="st0" cx="499.77" cy="272.73" r="8.53"/>
			<circle class="st0" cx="499.77" cy="319.47" r="8.53"/>
			<circle class="st0" cx="499.77" cy="366.2" r="8.53"/>
			<circle class="st0" cx="499.77" cy="412.94" r="8.53"/>
		</g>
		<g>
			<circle class="st0" cx="457.47" cy="225.99" r="8.53"/>
			<circle class="st0" cx="457.47" cy="272.73" r="8.53"/>
			<circle class="st0" cx="457.47" cy="319.47" r="8.53"/>
			<circle class="st0" cx="457.47" cy="366.2" r="8.53"/>
			<circle class="st0" cx="457.47" cy="412.94" r="8.53"/>
		</g>
	</g>
</g>
</svg>
