<?xml version="1.0" encoding="utf-8"?>
<!-- Generator: Adobe Illustrator 24.1.3, SVG Export Plug-In . SVG Version: 6.00 Build 0)  -->
<svg version="1.1" xmlns="http://www.w3.org/2000/svg" xmlns:xlink="http://www.w3.org/1999/xlink" x="0px" y="0px"
	 viewBox="0 0 1011.1 583.9" style="enable-background:new 0 0 1011.1 583.9;" xml:space="preserve">
<style type="text/css">
	.st0{fill:#E8918C;}
	.st1{fill:#842024;}
	.st2{fill:#AF2023;}
	.st3{fill:#991D1F;}
	.st4{fill:#091D23;}
	.st5{fill:#650F0E;}
	.st6{fill:#052C3A;}
	.st7{fill:#9B1D1F;}
	.st8{fill:#A06D3B;}
	.st9{fill:#C02226;}
	.st10{fill:#7C552F;}
	.st11{fill:#7D552F;}
	.st12{enable-background:new    ;}
	.st13{fill:#FFFFFF;}
	.st14{fill:none;stroke:#FFFFFF;stroke-width:2;stroke-miterlimit:10;}
</style>
<g id="Layer_2">
</g>
<g id="Layer_3">
</g>
<g id="Layer_4_copy">
	<g>
		<g>
			<g>
				<circle class="st0" cx="439.5" cy="373.9" r="8.5"/>
				<circle class="st0" cx="439.5" cy="420.6" r="8.5"/>
				<circle class="st0" cx="439.5" cy="467.4" r="8.5"/>
			</g>
			<g>
				<circle class="st0" cx="397.2" cy="373.9" r="8.5"/>
				<circle class="st0" cx="397.2" cy="420.6" r="8.5"/>
				<circle class="st0" cx="397.2" cy="467.4" r="8.5"/>
			</g>
			<g>
				<circle class="st0" cx="354.9" cy="373.9" r="8.5"/>
				<circle class="st0" cx="354.9" cy="420.6" r="8.5"/>
				<circle class="st0" cx="354.9" cy="467.4" r="8.5"/>
			</g>
			<g>
				<circle class="st0" cx="312.6" cy="373.9" r="8.5"/>
				<circle class="st0" cx="312.6" cy="420.6" r="8.5"/>
				<circle class="st0" cx="312.6" cy="467.4" r="8.5"/>
			</g>
			<g>
				<circle class="st0" cx="270.3" cy="373.9" r="8.5"/>
				<circle class="st0" cx="270.3" cy="420.6" r="8.5"/>
				<circle class="st0" cx="270.3" cy="467.4" r="8.5"/>
			</g>
			<g>
				<circle class="st0" cx="228" cy="373.9" r="8.5"/>
				<circle class="st0" cx="228" cy="420.6" r="8.5"/>
				<circle class="st0" cx="228" cy="467.4" r="8.5"/>
			</g>
			<g>
				<circle class="st0" cx="185.7" cy="373.9" r="8.5"/>
				<circle class="st0" cx="185.7" cy="420.6" r="8.5"/>
				<circle class="st0" cx="185.7" cy="467.4" r="8.5"/>
			</g>
			<g>
				<circle class="st0" cx="143.4" cy="373.9" r="8.5"/>
				<circle class="st0" cx="143.4" cy="420.6" r="8.5"/>
				<circle class="st0" cx="143.4" cy="467.4" r="8.5"/>
			</g>
			<g>
				<circle class="st0" cx="101.1" cy="373.9" r="8.5"/>
				<circle class="st0" cx="101.1" cy="420.6" r="8.5"/>
				<circle class="st0" cx="101.1" cy="467.4" r="8.5"/>
			</g>
			<g>
				<circle class="st0" cx="58.8" cy="373.9" r="8.5"/>
				<circle class="st0" cx="58.8" cy="420.6" r="8.5"/>
				<circle class="st0" cx="58.8" cy="467.4" r="8.5"/>
			</g>
		</g>
	</g>
	<g>
		<g>
			<g>
				<circle class="st0" cx="973.7" cy="45.9" r="8.5"/>
				<circle class="st0" cx="973.7" cy="92.6" r="8.5"/>
				<circle class="st0" cx="973.7" cy="139.3" r="8.5"/>
				<circle class="st0" cx="973.7" cy="186.1" r="8.5"/>
				<circle class="st0" cx="973.7" cy="232.8" r="8.5"/>
			</g>
			<g>
				<circle class="st0" cx="931.4" cy="45.9" r="8.5"/>
				<circle class="st0" cx="931.4" cy="92.6" r="8.5"/>
				<circle class="st0" cx="931.4" cy="139.3" r="8.5"/>
				<circle class="st0" cx="931.4" cy="186.1" r="8.5"/>
				<circle class="st0" cx="931.4" cy="232.8" r="8.5"/>
			</g>
			<g>
				<circle class="st0" cx="889.1" cy="45.9" r="8.5"/>
				<circle class="st0" cx="889.1" cy="92.6" r="8.5"/>
				<circle class="st0" cx="889.1" cy="139.3" r="8.5"/>
				<circle class="st0" cx="889.1" cy="186.1" r="8.5"/>
				<circle class="st0" cx="889.1" cy="232.8" r="8.5"/>
			</g>
			<g>
				<circle class="st0" cx="846.8" cy="45.9" r="8.5"/>
				<circle class="st0" cx="846.8" cy="92.6" r="8.5"/>
				<circle class="st0" cx="846.8" cy="139.3" r="8.5"/>
				<circle class="st0" cx="846.8" cy="186.1" r="8.5"/>
				<circle class="st0" cx="846.8" cy="232.8" r="8.5"/>
			</g>
			<g>
				<circle class="st0" cx="804.5" cy="45.9" r="8.5"/>
				<circle class="st0" cx="804.5" cy="92.6" r="8.5"/>
				<circle class="st0" cx="804.5" cy="139.3" r="8.5"/>
				<circle class="st0" cx="804.5" cy="186.1" r="8.5"/>
				<circle class="st0" cx="804.5" cy="232.8" r="8.5"/>
			</g>
			<g>
				<circle class="st0" cx="762.2" cy="45.9" r="8.5"/>
				<circle class="st0" cx="762.2" cy="92.6" r="8.5"/>
				<circle class="st0" cx="762.2" cy="139.3" r="8.5"/>
				<circle class="st0" cx="762.2" cy="186.1" r="8.5"/>
				<circle class="st0" cx="762.2" cy="232.8" r="8.5"/>
			</g>
			<g>
				<circle class="st0" cx="719.9" cy="45.9" r="8.5"/>
				<circle class="st0" cx="719.9" cy="92.6" r="8.5"/>
				<circle class="st0" cx="719.9" cy="139.3" r="8.5"/>
				<circle class="st0" cx="719.9" cy="186.1" r="8.5"/>
				<circle class="st0" cx="719.9" cy="232.8" r="8.5"/>
			</g>
			<g>
				<circle class="st0" cx="677.6" cy="45.9" r="8.5"/>
				<circle class="st0" cx="677.6" cy="92.6" r="8.5"/>
				<circle class="st0" cx="677.6" cy="139.3" r="8.5"/>
				<circle class="st0" cx="677.6" cy="186.1" r="8.5"/>
				<circle class="st0" cx="677.6" cy="232.8" r="8.5"/>
			</g>
			<g>
				<circle class="st0" cx="635.3" cy="45.9" r="8.5"/>
				<circle class="st0" cx="635.3" cy="92.6" r="8.5"/>
				<circle class="st0" cx="635.3" cy="139.3" r="8.5"/>
				<circle class="st0" cx="635.3" cy="186.1" r="8.5"/>
				<circle class="st0" cx="635.3" cy="232.8" r="8.5"/>
			</g>
			<g>
				<circle class="st0" cx="593" cy="45.9" r="8.5"/>
				<circle class="st0" cx="593" cy="92.6" r="8.5"/>
				<circle class="st0" cx="593" cy="139.3" r="8.5"/>
				<circle class="st0" cx="593" cy="186.1" r="8.5"/>
				<circle class="st0" cx="593" cy="232.8" r="8.5"/>
			</g>
		</g>
		<g>
			<g>
				<circle class="st0" cx="973" cy="232.7" r="8.5"/>
				<circle class="st0" cx="973" cy="279.4" r="8.5"/>
				<circle class="st0" cx="973" cy="326.2" r="8.5"/>
				<circle class="st0" cx="973" cy="372.9" r="8.5"/>
				<circle class="st0" cx="973" cy="419.6" r="8.5"/>
			</g>
			<g>
				<circle class="st0" cx="930.7" cy="232.7" r="8.5"/>
				<circle class="st0" cx="930.7" cy="279.4" r="8.5"/>
				<circle class="st0" cx="930.7" cy="326.2" r="8.5"/>
				<circle class="st0" cx="930.7" cy="372.9" r="8.5"/>
				<circle class="st0" cx="930.7" cy="419.6" r="8.5"/>
			</g>
			<g>
				<circle class="st0" cx="888.4" cy="232.7" r="8.5"/>
				<circle class="st0" cx="888.4" cy="279.4" r="8.5"/>
				<circle class="st0" cx="888.4" cy="326.2" r="8.5"/>
				<circle class="st0" cx="888.4" cy="372.9" r="8.5"/>
				<circle class="st0" cx="888.4" cy="419.6" r="8.5"/>
			</g>
			<g>
				<circle class="st0" cx="846.1" cy="232.7" r="8.5"/>
				<circle class="st0" cx="846.1" cy="279.4" r="8.5"/>
				<circle class="st0" cx="846.1" cy="326.2" r="8.5"/>
				<circle class="st0" cx="846.1" cy="372.9" r="8.5"/>
				<circle class="st0" cx="846.1" cy="419.6" r="8.5"/>
			</g>
			<g>
				<circle class="st0" cx="803.8" cy="232.7" r="8.5"/>
				<circle class="st0" cx="803.8" cy="279.4" r="8.5"/>
				<circle class="st0" cx="803.8" cy="326.2" r="8.5"/>
				<circle class="st0" cx="803.8" cy="372.9" r="8.5"/>
				<circle class="st0" cx="803.8" cy="419.6" r="8.5"/>
			</g>
			<g>
				<circle class="st0" cx="761.5" cy="232.7" r="8.5"/>
				<circle class="st0" cx="761.5" cy="279.4" r="8.5"/>
				<circle class="st0" cx="761.5" cy="326.2" r="8.5"/>
				<circle class="st0" cx="761.5" cy="372.9" r="8.5"/>
				<circle class="st0" cx="761.5" cy="419.6" r="8.5"/>
			</g>
			<g>
				<circle class="st0" cx="719.2" cy="232.7" r="8.5"/>
				<circle class="st0" cx="719.2" cy="279.4" r="8.5"/>
				<circle class="st0" cx="719.2" cy="326.2" r="8.5"/>
				<circle class="st0" cx="719.2" cy="372.9" r="8.5"/>
				<circle class="st0" cx="719.2" cy="419.6" r="8.5"/>
			</g>
			<g>
				<circle class="st0" cx="676.9" cy="232.7" r="8.5"/>
				<circle class="st0" cx="676.9" cy="279.4" r="8.5"/>
				<circle class="st0" cx="676.9" cy="326.2" r="8.5"/>
				<circle class="st0" cx="676.9" cy="372.9" r="8.5"/>
				<circle class="st0" cx="676.9" cy="419.6" r="8.5"/>
			</g>
			<g>
				<circle class="st0" cx="634.6" cy="232.7" r="8.5"/>
				<circle class="st0" cx="634.6" cy="279.4" r="8.5"/>
				<circle class="st0" cx="634.6" cy="326.2" r="8.5"/>
				<circle class="st0" cx="634.6" cy="372.9" r="8.5"/>
				<circle class="st0" cx="634.6" cy="419.6" r="8.5"/>
			</g>
			<g>
				<circle class="st0" cx="592.3" cy="232.7" r="8.5"/>
				<circle class="st0" cx="592.3" cy="279.4" r="8.5"/>
				<circle class="st0" cx="592.3" cy="326.2" r="8.5"/>
				<circle class="st0" cx="592.3" cy="372.9" r="8.5"/>
				<circle class="st0" cx="592.3" cy="419.6" r="8.5"/>
			</g>
		</g>
	</g>
</g>
<g id="Layer_1">
	<g>
		<path class="st1" d="M579.6,279.3c0,0-25.8-28.5,17.9-54.9c0,0-14-24.1,8.5-39.8c0,0-29.7-35.2,10.1-62.3c0,0-21.5-46.6,33.2-76
			c0,0,55.7-39.4,91,17.6c0,0,44.3,3.9,25.4,67.8c0,0,48.6,8.8,10.4,67.8c0,0,20.5,2.9,16.1,24.1
			C787.9,244.9,942.7,300.3,579.6,279.3z"/>
		<path class="st2" d="M588.2,491.8c-29.2,0.3-58.4,0.3-87.6,0c4.1-10.7,77.7-216.5,80.5-220.6c9.7-14.1,23.8-22.3,38.8-29.5
			c1.4-0.7,2.9-0.9,4.4-0.3c0.7,0.3,1.6,0.8,1.6,1.5c0.5,6.2,5.4,8.4,9.9,11c15.2,8.6,30.5,16.8,47.3,21.7c4.3,1.3,8.7,1.9,13.3,1.4
			c5.1-0.5,6.9,1,7.5,6c1.7,13,2.3,26,3.4,39.1c1.4,17.1,2.7,34.2,4.1,51.4c1.2,14.7,2.3,29.4,3.4,44.1c0.2,2.5-0.5,4.8-2.7,6.4
			c-1.8,1.5-4,2-6.1,2.7c-15.6,4.5-30.8,10.5-46.4,15.2c-17.9,5.4-30.3,17.2-40.7,31.8c-2.9,4.1-5.6,8.4-8.1,12.8
			c-1.2,2.1-2.6,4.1-4.8,5.3c-5.2,0-10.4,0-15.6,0c-1.2-6.6,1-12.9,2-19.3c2.6-16.5,5.5-33,8.7-49.4c3.7-19,7.3-38,11.2-57
			c0.3-1.2,0.3-2.6,0.6-2.8c-1.5,6.9-21.7,115.3-22.5,122.3C590.2,487.8,590,490.1,588.2,491.8z"/>
		<path class="st3" d="M894.9,260.4c-8-4.5-12.7-11.9-16.9-19.7c-4.6-11.2-8-22.8-10-34.8c-2.4-14.8-1.8-29.7-2.1-44.6
			c-0.5-1.9-0.4-4-2.1-5.5c-6.8,1-10.8,5.6-13.9,11.1c-4.6,8.1-8.2,16.8-12,25.3c-4.6,10.4-9.2,20.9-13.6,31.4
			c-1.3,3.1-2.7,4.2-6.3,3.3c-3.9-1.1-8.2-0.6-12.2-1.6c-5.3-1.3-10.9-0.1-16-2.2c-10-3.4-20.1-5.2-30.3-1c-2.4,2.1-2.3,5-2.4,7.7
			c-0.1,5.8,0,11.6-0.1,17.4c0,2.6-0.7,4.8-2.9,6.3c-9.3,6.2-18.1,13.2-27.9,18.6c-3.7,2-7.5,3.1-11.8,2.8c-3.8-0.2-5.9-1.7-5.8-5.8
			c0.1-4.1,0.2-8.2-1.3-12.2c-2.4-5-1.6-10.3-1.4-15.5c0.3-6.6-2.5-11.1-8.1-14.1c-8.9-4.8-18.4-8.4-28.4-10.4
			c-9.6-2.9-19.4-5.3-29.3-7.1c-2.7-0.5-5.5-1.3-8.2,0.2c-1.1,0.8-1.9,1.8-2.3,3.1c-2.6,9.6-4.9,19.3-6.5,29.1
			c0.9,0.2,2.3,0.4,1.8,1.5c-2.3,5.5,1.5,7.3,5.3,9.3c1.3,0.7,2.7,1.3,4,2.1c14,8.7,28.8,15.9,44.3,21.3c6.2,2.2,12.8,4.4,19.7,2.1
			c2.6-0.9,3.6,0.5,3.8,3.2c0.4,6.1,0.6,12.3,1.4,18.4c1.4,11.3,1.9,22.6,2.8,33.9c0.6,7,1.2,14.1,1.7,21.2c0.4,5.4,0.3,10.8,1,16.1
			c1.1,7.7,1.3,15.6,2.1,23.3c0.8,7.4,0.5,14.9,2,22.2c0.5,2.5,0.4,4.9-2.1,6.4c1.3,2,3.2,2,5.2,1.9c1.3-0.3,2.4-0.6,3.8-0.3
			c28.1,6,56.1,12,83.6,20.3c1.9,0.2,3.6,0.8,5.4,1.3c5.8,1.7,10.9,4.8,16.7,6.3c1.4-0.7,1-1.8,0.7-2.8c-0.9-2.6-2-5.2-2.9-7.9
			c-12.3-35.4-24.7-70.9-36.9-106.4c-1.3-3.8-3.2-7.4-3.5-12.1c9.3,2.3,18.1,4.2,26.9,6.6c7.8,2.1,15.1,1.9,22.3-2
			c5.5-3,10.4-6.7,14.9-11c8.1-7.7,15.9-15.9,23.5-24.2c8.9-9.8,18.1-19.4,27.2-29.1C897.4,262,896.2,261.1,894.9,260.4z"/>
		<path class="st4" d="M716.2,422.8c5.1-1.3,9.9,1,14.7,2c21.6,4.6,43.2,9.5,64.5,15.5c3,0.8,6.2,1.3,8.8,3.2
			c5,3.7,8.3,8.4,8.9,14.7c6.7,11.2,13.3,22.3,20,33.5c-18.9,0.1-37.8,0.2-56.7,0.2c-8.4,0-16.8-0.1-25.2-0.2
			c-2.5-0.9-3.8-2.9-4.9-5.1c-9.4-18.9-19.7-37.3-28.7-56.4C716.6,427.9,714.8,425.6,716.2,422.8z"/>
		<path class="st5" d="M877.3,242.5c1.7-1.4,1.9-3.5,2.6-5.4c6.2-17.5,12.4-35,18.7-52.5c0.2-0.7,0.7-1.3,1.1-1.9
			c5.2,8.6,8,18.1,9.7,27.8c2.3,12.4,2.9,24.8-0.7,37.1c-1.9,6.5-4.7,12.6-11.1,16.1C887.8,259.6,881.3,252.2,877.3,242.5z"/>
		<path class="st5" d="M813.2,458.2c-3.3-4.7-6.3-9.6-8.9-14.7c7.7,1.6,15.6,2.9,21.4,9.1C821.7,455.1,817.3,456.4,813.2,458.2z"/>
		<path class="st5" d="M863.8,155.9c0,1.9,0,3.7,0,5.6c1.2-1.8,4.6-3.5,2.5-6C866,155.5,864.2,155.8,863.8,155.9z"/>
		<path class="st6" d="M716.2,422.8c11.1,23.2,23.6,45.9,35.1,68.9c-2.1,0.1-4.1,0.2-6.2,0.2c-44.3,0-88.6,0-133,0
			c-2.1,0-4.1-0.1-6.2-0.2c8.1-16.4,18.3-31.2,33-42.4c5.9-4.5,12.9-6.7,19.7-9.1c17.2-6.2,34.4-12.1,52-17.1
			C712.6,423.1,714.4,422.9,716.2,422.8z"/>
		<path class="st7" d="M588.2,491.8c2-16,4.2-32,7.2-47.9c4-21.6,8.4-43,13.2-64.4c1.4-6.4,2.4-13,5.1-20.3
			c0.8,4.9-0.8,8.2-1.4,11.6c-2.7,15.9-5.5,31.8-8.3,47.7c-1.9,11-3.9,21.9-5.8,32.9c-2.3,12.8-4.5,25.6-6.8,38.4
			c-0.1,0.7-0.6,1.4-0.9,2C589.7,491.8,588.9,491.8,588.2,491.8z"/>
		<path class="st8" d="M671.6,195.3c1.8-5.1,1.7-9.6-2.8-13.6c-3.5-3-4.9-7.5-6.2-11.7c-1.1-3.3-2.5-5-6-3c-6.3,3.6-11,1.8-15.4-3.6
			c-2.5-3-4.4-5.4-2.7-9.3c0.3-0.7,0.4-1.5,0.3-2.2c-0.1-5.3,2.4-8.3,7.5-9.4c1.4-0.3,2.8-1,4.7-1.7c-1.9-8-3.9-15.9-5.7-23.8
			c-1.7-7.5,0.8-14.4,4.5-20.7c2.1-3.7,6.6-4.3,11-2.6c5.1,1.9,9.1,5.2,12.8,8.9c9.5,9.4,21.5,13.1,33.9,16c2.9,0.7,5.9,0.9,8.8,1.3
			c2.2,1.6,3.4,3.9,4.4,6.4c2.3,5.9,4.6,11.9,6.9,17.8c7.4,19.4,2.4,37.1-7.3,54.2c-1.7,3-4.6,4.6-8,4.4
			c-10.9-0.8-21.6-2.4-30.5-9.4c0.1,0.1-0.1,0,0,0c10.5,8.9,20.5,18.1,30.1,27.8c1.8,1.8,3.9,3.7,2.8,6.8c-7.3,5-7.8,12.3-7.3,20.2
			c0.2,3.4,1,7.2-2.1,10c-1.8-1.1-1.2-3-1.2-4.6c-0.1-4.7-0.1-9.4,0-14c0.1-3.7-1.4-6.4-4.5-8.4c-8.2-5.5-17.5-8.3-26.8-11.1
			c-1.2-0.4-2.5-0.7-3.7-1.3c-3.1-3.2-1.4-7.1-1-10.5C668.7,203.8,667.9,198.9,671.6,195.3z"/>
		<path class="st9" d="M705.2,258.1c0-6.1,0.4-12.3-0.1-18.4c-0.4-5.5,1.9-8.8,6.3-11.2c1-0.5,1.8-1.3,2.7-1.9
			c1-2.6,3.1-3.5,5.6-3.9c10.2-4.9,21.1-7.3,31.9-10.1c2.2-0.5,4.4-1.2,6.4,0.5c2.2,3.2,0.5,6.8,1.1,10.1c0,8.6,0,17.2,0,25.7
			c0,1.8,0.4,3.7-1.7,5c-11.5,7.1-21.8,16.2-34.2,22.1c-1.7,0.8-3.5,1.2-5.4,1.2c-10.9,0.3-11.6-0.3-11.7-11
			C706.2,263.5,707.2,260.6,705.2,258.1z"/>
		<path class="st5" d="M671.6,195.3c-0.1,7.9-2,15.6-2.5,23.4c-9.1-2.1-18.1-4.2-27.2-6.2c-3.3-0.7-6.6-1.1-9.9-1.7
			c0.7-5.1,4.6-7.7,8.6-9.6c8.1-3.9,16.8-6,25.8-7.1C668.2,193.8,670.2,193.4,671.6,195.3z"/>
		<path class="st9" d="M727.3,319.9c-4.6,0-8.5-3.4-8.6-7.7c-0.1-4.9,3.3-9.1,8.1-8.9c5.1,0.1,8.8,3,8.8,8.8
			C735.5,317.1,732.6,319.9,727.3,319.9z"/>
		<path class="st9" d="M731.4,340.2c4.6-0.1,8.5,3.4,8.6,7.7c0.1,5-3.8,9.2-8.5,9.2c-4.6-0.1-8.3-4-8.3-8.8
			C723.2,343.9,726.9,340.2,731.4,340.2z"/>
		<path class="st10" d="M719.8,224.2c-1.9,0.8-3.7,1.6-5.6,2.3c-5.4-6.2-11.3-11.9-17.5-17.3c-6.2-5.4-12.1-11.1-17.4-17.5l0,0
			c2.5-0.5,4.2,1.4,6.2,2.3c7.6,3.4,15.5,5.2,23.7,6.6c6.2,1,7.8,0.1,10.7-5.5c6-11.4,9.7-23.4,9.1-36.5c-0.2-4.6-1.5-8.8-3.1-13
			c-2.9-7.7-6.1-15.3-9.1-22.9c-0.3-0.8-0.3-1.8-0.5-2.7c6.3,1.3,12.6,1.1,19,1c3-0.1,5,0.7,6,3.7c2.7,7.4,5.9,14.6,8.1,22.1
			c2.3,7.8,0.3,15.5-2.3,23c-3.2,8.9-8.8,16.4-14.3,24c-1.1,1.5-3.3,1.8-4.2,3.7c-1,7.9-3.9,15.4-5.9,23.1
			C722.4,222,721,223.1,719.8,224.2z"/>
		<path class="st5" d="M719.8,224.2c1.9-7.4,3.8-14.8,5.8-22.2c0.5-1.8,0.3-4.3,3.1-4.8c9.5,0.8,18,4.4,25.8,9.7
			c2.1,1.4,3.2,3.6,3.5,6.1C745.1,216.1,732.3,219.7,719.8,224.2z"/>
		<path class="st11" d="M655.6,159.8c-2.6,0.4-4.2,2.2-6.7,1c-4.1-2.1-5.3-5.9-3-10c0.9-1.5,2.3-1.7,3.8-1.7c1.6,0,2.2,0.8,2.7,2.2
			C653.3,153.9,654.4,156.4,655.6,159.8z"/>
		<path class="st10" d="M679.3,191.7c-0.2-0.2-0.3-0.3-0.5-0.5c0.1,0,0.2,0,0.3,0.1C679.2,191.5,679.2,191.6,679.3,191.7
			L679.3,191.7z"/>
		<path class="st11" d="M967.6,108.2l-22,4.4l-1-4.6c39-26.7,37.8-32.3,37.8-32.3c3.3-13.7-17.9,4.2-17.9,4.2
			C953.7,85.9,938,97.9,938,97.9l-4.2-3.7l16.3-21.5c14.7-14.5,15.5-24,15.5-24c1-9.1-8.3-1.6-8.3-1.6l-10.8,11.7L925,84.3l-2.1-3.4
			c3.6-7.5,14.5-40.1,14.5-40.1c1.5-11.9-5.7-4.6-5.7-4.6l-7,13.2l-13,23.5c-5.6,10.9-14.3,15.7-17.7,17.2c-0.3-0.1-0.7-0.2-1.4-0.3
			c-3.8-0.5-5.4-5-5.4-5C883.6,57.2,876.9,60,876.9,60c-7-3.6-4.6,4.7-4.6,4.7s4.7,10.4,3.6,22.2c0,0.3,0,0.6-0.1,0.8
			c-0.9,11.9,1.7,31.8,1.7,31.8s-12,38.4-12,38.6c-1.2,2.2-0.8,2.1-1.7,3.1c-0.4,17-0.3,34,3.3,50.7c2.1,9.9,4.4,19.8,10,28.6l0.1,2
			l0.5-1.9c0.8,4.8,3.6-3.1,4.3-5.3c5.5-16,11.3-31.9,16.9-47.9c0.8-2.2,1-4.3,0.7-6.6c0.6-2.2,1.3-4.5,2-6.6c-0.1,0-0.2,0-0.4,0
			l7.8-21.9c19.2-11.2,22.8-17.1,22.8-17.1c2.8-6.4,11.4-10.1,11.4-10.1c24.9-6.7,37.3-12.6,37.3-12.6
			C991.5,103,967.6,108.2,967.6,108.2z"/>
	</g>
</g>
<g id="Layer_6">
	<g class="st12">
		<path class="st13" d="M99.8,149.6h-9.2v-3.3h22.3v3.3h-9.2v23.6h-3.8V149.6z"/>
		<path class="st13" d="M114.5,159.8c0-7.9,6.1-13.8,14.3-13.8c8.2,0,14.3,5.8,14.3,13.8s-6.1,13.8-14.3,13.8
			C120.6,173.5,114.5,167.6,114.5,159.8z M139.2,159.8c0-6-4.5-10.3-10.4-10.3c-6,0-10.5,4.4-10.5,10.3s4.5,10.3,10.5,10.3
			C134.8,170.1,139.2,165.7,139.2,159.8z"/>
		<path class="st13" d="M170.7,155.7c0,5.8-4.2,9.4-11.2,9.4h-6.6v8.1H149v-26.9h10.5C166.5,146.3,170.7,149.8,170.7,155.7z
			 M166.8,155.7c0-3.8-2.6-6-7.5-6h-6.5v12.1h6.5C164.3,161.7,166.8,159.5,166.8,155.7z"/>
		<path class="st13" d="M190.9,149.6v9.4h13.5v3.3h-13.5v10.9h-3.8v-26.9h19v3.3H190.9z"/>
		<path class="st13" d="M209,159.8c0-7.9,6.1-13.8,14.3-13.8c8.2,0,14.3,5.8,14.3,13.8s-6.1,13.8-14.3,13.8
			C215.1,173.5,209,167.6,209,159.8z M233.7,159.8c0-6-4.5-10.3-10.4-10.3c-6,0-10.5,4.4-10.5,10.3s4.5,10.3,10.5,10.3
			C229.3,170.1,233.7,165.7,233.7,159.8z"/>
		<path class="st13" d="M243.2,161.6v-15.3h3.8v15.1c0,6,2.7,8.6,7.6,8.6s7.6-2.7,7.6-8.6v-15.1h3.7v15.3c0,7.8-4.3,11.9-11.4,11.9
			C247.5,173.5,243.2,169.4,243.2,161.6z"/>
		<path class="st13" d="M291.9,173.2l-5.8-8.3c-0.5,0-1.1,0.1-1.7,0.1h-6.6v8.2h-3.8v-26.9h10.5c7,0,11.2,3.5,11.2,9.4
			c0,4.2-2.2,7.1-5.9,8.5l6.4,9H291.9z M291.7,155.7c0-3.8-2.6-6-7.5-6h-6.5v12.1h6.5C289.2,161.7,291.7,159.5,291.7,155.7z"/>
		<path class="st13" d="M309.7,170.1l1.4-3c2,1.8,5.4,3.1,8.9,3.1c4.7,0,6.6-1.8,6.6-4.2c0-6.6-16.3-2.4-16.3-12.4
			c0-4.2,3.2-7.7,10.3-7.7c3.2,0,6.4,0.8,8.6,2.4l-1.3,3.1c-2.3-1.5-5-2.2-7.4-2.2c-4.6,0-6.5,1.9-6.5,4.3c0,6.6,16.3,2.5,16.3,12.3
			c0,4.1-3.3,7.6-10.4,7.6C315.9,173.5,311.9,172.1,309.7,170.1z"/>
		<path class="st13" d="M341,149.6h-9.2v-3.3H354v3.3h-9.2v23.6H341V149.6z"/>
		<path class="st13" d="M376.2,173.2l-5.8-8.3c-0.5,0-1.1,0.1-1.7,0.1h-6.6v8.2h-3.8v-26.9h10.5c7,0,11.2,3.5,11.2,9.4
			c0,4.2-2.2,7.1-5.9,8.5l6.4,9H376.2z M376.1,155.7c0-3.8-2.6-6-7.5-6h-6.5v12.1h6.5C373.5,161.7,376.1,159.5,376.1,155.7z"/>
		<path class="st13" d="M405.7,169.9v3.3h-19.5v-26.9h19v3.3H390v8.3h13.5v3.3H390v8.7H405.7z"/>
		<path class="st13" d="M435.1,146.3v26.9h-3.2l-16.1-20.1v20.1h-3.8v-26.9h3.2l16.1,20.1v-20.1H435.1z"/>
		<path class="st13" d="M461.8,159.6h3.7v10.5c-2.7,2.3-6.4,3.4-10.2,3.4c-8.3,0-14.3-5.8-14.3-13.8S447,146,455.4,146
			c4.3,0,7.9,1.4,10.3,4.2l-2.4,2.4c-2.2-2.2-4.8-3.1-7.8-3.1c-6.2,0-10.7,4.3-10.7,10.3c0,5.9,4.5,10.3,10.7,10.3
			c2.3,0,4.4-0.5,6.3-1.7V159.6z"/>
		<path class="st13" d="M478.2,149.6h-9.2v-3.3h22.3v3.3H482v23.6h-3.8V149.6z"/>
		<path class="st13" d="M518.5,146.3v26.9h-3.8v-12h-15.5v12h-3.8v-26.9h3.8v11.6h15.5v-11.6H518.5z"/>
		<path class="st13" d="M524.1,170.1l1.4-3c2,1.8,5.4,3.1,8.9,3.1c4.7,0,6.6-1.8,6.6-4.2c0-6.6-16.3-2.4-16.3-12.4
			c0-4.2,3.2-7.7,10.3-7.7c3.2,0,6.4,0.8,8.6,2.4l-1.3,3.1c-2.3-1.5-5-2.2-7.4-2.2c-4.6,0-6.5,1.9-6.5,4.3c0,6.6,16.3,2.5,16.3,12.3
			c0,4.1-3.3,7.6-10.4,7.6C530.3,173.5,526.3,172.1,524.1,170.1z"/>
		<path class="st1" d="M66,214.1H54.7l-2.1,5.2h-7.8l11.9-26.9h7.5l11.9,26.9h-7.9L66,214.1z M63.8,208.5l-3.5-8.6l-3.5,8.6H63.8z"
			/>
		<path class="st1" d="M78.2,192.4H91c8.9,0,15,5.2,15,13.5c0,8.3-6.1,13.5-15,13.5H78.2V192.4z M90.6,213.3c4.6,0,7.6-2.7,7.6-7.4
			c0-4.7-3.1-7.4-7.6-7.4h-4.8v14.8H90.6z"/>
		<path class="st1" d="M127.6,214.1h-11.4l-2.1,5.2h-7.8l11.9-26.9h7.5l11.9,26.9h-7.9L127.6,214.1z M125.4,208.5l-3.5-8.6l-3.5,8.6
			H125.4z"/>
		<path class="st1" d="M164.1,202.4c0,6.1-4.6,9.9-12,9.9h-4.7v7h-7.6v-26.9h12.3C159.5,192.4,164.1,196.2,164.1,202.4z
			 M156.4,202.4c0-2.5-1.6-4-4.7-4h-4.2v7.9h4.2C154.8,206.3,156.4,204.8,156.4,202.4z"/>
		<path class="st1" d="M172.8,198.5h-8.3v-6h24.1v6h-8.2v20.9h-7.6V198.5z"/>
		<path class="st1" d="M208.2,214.1h-11.4l-2.1,5.2H187l11.9-26.9h7.5l11.9,26.9h-7.9L208.2,214.1z M206,208.5l-3.5-8.6l-3.5,8.6
			H206z"/>
		<path class="st1" d="M246,212c0,4.7-3.8,7.4-11.1,7.4h-14.5v-26.9h13.8c7.1,0,10.5,2.9,10.5,7c0,2.6-1.3,4.7-3.6,5.8
			C244.1,206.4,246,208.7,246,212z M227.9,197.9v5.2h5.2c2.5,0,3.8-0.9,3.8-2.6c0-1.7-1.3-2.6-3.8-2.6H227.9z M238.3,211.1
			c0-1.8-1.4-2.7-4-2.7h-6.4v5.5h6.4C236.9,213.8,238.3,213,238.3,211.1z"/>
		<path class="st1" d="M250,192.4h7.6v20.9h12.8v6H250V192.4z"/>
		<path class="st1" d="M295,213.5v5.9h-21.6v-26.9h21.1v5.9h-13.6v4.5h12v5.7h-12v4.9H295z"/>
		<path class="st1" d="M306.7,215.3c0,1.1-0.2,1.9-1.3,4.4l-2.4,5.6h-4.6l1.8-6.3c-1.4-0.7-2.3-2-2.3-3.8c0-2.6,1.8-4.3,4.4-4.3
			C304.9,211,306.7,212.7,306.7,215.3z"/>
		<path class="st1" d="M319.8,216.9l2.5-5.6c2.4,1.6,5.8,2.7,8.9,2.7c3.2,0,4.4-0.9,4.4-2.2c0-4.3-15.3-1.2-15.3-11.1
			c0-4.8,3.9-8.7,11.9-8.7c3.5,0,7.1,0.8,9.8,2.3l-2.3,5.6c-2.6-1.4-5.1-2.1-7.5-2.1c-3.2,0-4.3,1.1-4.3,2.4c0,4.1,15.3,1,15.3,11
			c0,4.7-3.9,8.7-11.9,8.7C326.7,219.9,322.4,218.7,319.8,216.9z"/>
		<path class="st1" d="M351.9,198.5h-8.3v-6h24.1v6h-8.2v20.9h-7.6V198.5z"/>
		<path class="st1" d="M382.4,212.2h-4.2v7.1h-7.6v-26.9h12.3c7.3,0,12,3.8,12,10c0,4-1.9,6.9-5.3,8.5l5.8,8.5h-8.1L382.4,212.2z
			 M382.4,198.4h-4.2v7.9h4.2c3.2,0,4.7-1.5,4.7-3.9C387.2,199.9,385.6,198.4,382.4,198.4z"/>
		<path class="st1" d="M417.1,214.1h-11.4l-2.1,5.2h-7.8l11.9-26.9h7.5l11.9,26.9h-7.9L417.1,214.1z M414.8,208.5l-3.5-8.6l-3.5,8.6
			H414.8z"/>
		<path class="st1" d="M433.6,198.5h-8.3v-6h24.1v6h-8.2v20.9h-7.6V198.5z"/>
		<path class="st1" d="M473.9,213.5v5.9h-21.6v-26.9h21.1v5.9h-13.6v4.5h12v5.7h-12v4.9H473.9z"/>
		<path class="st1" d="M496.2,205.3h6.7v11.1c-3.1,2.2-7.4,3.4-11.3,3.4c-8.6,0-14.8-5.8-14.8-14c0-8.2,6.3-14,15-14
			c5,0,9.1,1.7,11.8,4.9l-4.8,4.4c-1.8-2-4-3-6.5-3c-4.6,0-7.7,3-7.7,7.7c0,4.5,3.1,7.7,7.6,7.7c1.4,0,2.8-0.3,4.1-0.9V205.3z"/>
		<path class="st1" d="M507.7,192.4h7.6v26.9h-7.6V192.4z"/>
		<path class="st1" d="M519.4,205.9c0-8.2,6.3-14,14.8-14c5,0,9,1.8,11.6,5.1l-4.8,4.4c-1.7-2-3.8-3.2-6.3-3.2
			c-4.4,0-7.5,3.1-7.5,7.7c0,4.6,3.1,7.7,7.5,7.7c2.6,0,4.7-1.1,6.3-3.2l4.8,4.4c-2.6,3.3-6.6,5.1-11.6,5.1
			C525.6,219.9,519.4,214.1,519.4,205.9z"/>
		<path class="st1" d="M43.4,238.6H51v26.9h-7.6V238.6z"/>
		<path class="st1" d="M56.4,238.6h12.7c8.9,0,15,5.2,15,13.5c0,8.3-6.1,13.5-15,13.5H56.4V238.6z M68.8,259.4
			c4.6,0,7.6-2.7,7.6-7.4c0-4.7-3.1-7.4-7.6-7.4H64v14.8H68.8z"/>
		<path class="st1" d="M109.8,259.6v5.9H88.2v-26.9h21.1v5.9H95.7v4.5h12v5.7h-12v4.9H109.8z"/>
		<path class="st1" d="M132,260.2h-11.4l-2.1,5.2h-7.8l11.9-26.9h7.5l11.9,26.9h-7.9L132,260.2z M129.8,254.6l-3.5-8.6l-3.5,8.6
			H129.8z"/>
		<path class="st1" d="M148.6,244.6h-8.3v-6h24.1v6h-8.2v20.9h-7.6V244.6z"/>
		<path class="st1" d="M167.3,238.6h7.6v26.9h-7.6V238.6z"/>
		<path class="st1" d="M178.9,252c0-8.1,6.3-14,15-14s15,5.9,15,14c0,8.1-6.3,14-15,14S178.9,260.1,178.9,252z M201.1,252
			c0-4.7-3.2-7.7-7.3-7.7c-4.1,0-7.3,3-7.3,7.7c0,4.7,3.2,7.7,7.3,7.7C197.9,259.7,201.1,256.7,201.1,252z"/>
		<path class="st1" d="M238.4,238.6v26.9h-6.3l-11.9-14.3v14.3h-7.5v-26.9h6.3l11.9,14.3v-14.3H238.4z"/>
		<path class="st1" d="M261.8,260.2h-11.4l-2.1,5.2h-7.8l11.9-26.9h7.5l11.9,26.9H264L261.8,260.2z M259.6,254.6l-3.5-8.6l-3.5,8.6
			H259.6z"/>
		<path class="st1" d="M274,238.6h7.6v20.9h12.8v6H274V238.6z"/>
		<path class="st1" d="M305.7,261.5c0,1.1-0.2,1.9-1.3,4.4l-2.4,5.6h-4.6l1.8-6.3c-1.4-0.7-2.3-2-2.3-3.8c0-2.6,1.8-4.3,4.4-4.3
			C303.9,257.2,305.7,258.9,305.7,261.5z"/>
		<path class="st1" d="M345,248.5c0,6.1-4.6,9.9-12,9.9h-4.7v7h-7.6v-26.9H333C340.3,238.6,345,242.4,345,248.5z M337.3,248.5
			c0-2.5-1.6-4-4.7-4h-4.2v7.9h4.2C335.7,252.4,337.3,251,337.3,248.5z"/>
		<path class="st1" d="M347.6,252c0-8.1,6.3-14,15-14s15,5.9,15,14c0,8.1-6.3,14-15,14S347.6,260.1,347.6,252z M369.9,252
			c0-4.7-3.2-7.7-7.3-7.7c-4.1,0-7.3,3-7.3,7.7c0,4.7,3.2,7.7,7.3,7.7C366.7,259.7,369.9,256.7,369.9,252z"/>
		<path class="st1" d="M379.7,263l2.5-5.6c2.4,1.6,5.8,2.7,8.9,2.7c3.2,0,4.4-0.9,4.4-2.2c0-4.3-15.3-1.2-15.3-11.1
			c0-4.8,3.9-8.7,11.9-8.7c3.5,0,7.1,0.8,9.8,2.3l-2.3,5.7c-2.6-1.4-5.1-2.1-7.5-2.1c-3.2,0-4.3,1.1-4.3,2.4c0,4.1,15.3,1,15.3,11
			c0,4.7-3.9,8.7-11.9,8.7C386.6,266,382.2,264.8,379.7,263z"/>
		<path class="st1" d="M406.4,238.6h7.6v26.9h-7.6V238.6z"/>
		<path class="st1" d="M425.2,244.6h-8.3v-6H441v6h-8.2v20.9h-7.6V244.6z"/>
		<path class="st1" d="M443.9,238.6h7.6v26.9h-7.6V238.6z"/>
		<path class="st1" d="M484.1,238.6l-11.5,26.9h-7.5l-11.5-26.9h8.2l7.3,17.5l7.5-17.5H484.1z"/>
		<path class="st1" d="M485.7,238.6h7.6v26.9h-7.6V238.6z"/>
		<path class="st1" d="M504.5,244.6h-8.3v-6h24.1v6h-8.2v20.9h-7.6V244.6z"/>
		<path class="st1" d="M536.9,255.8v9.6h-7.6v-9.8L519,238.6h8l6.4,10.7l6.4-10.7h7.4L536.9,255.8z"/>
	</g>
	<line class="st14" x1="43.4" y1="297.2" x2="544.9" y2="297.2"/>
	<g>
		<g>
			<line class="st14" x1="250" y1="296.4" x2="250" y2="543.9"/>
			<g>
				<polygon class="st13" points="240,541 250,558.3 259.9,541 				"/>
			</g>
		</g>
	</g>
</g>
</svg>
