<?xml version="1.0" encoding="utf-8"?>
<!-- Generator: Adobe Illustrator 24.2.3, SVG Export Plug-In . SVG Version: 6.00 Build 0)  -->
<svg version="1.1" id="Layer_1" xmlns="http://www.w3.org/2000/svg" xmlns:xlink="http://www.w3.org/1999/xlink" x="0px" y="0px"
	 viewBox="0 0 969.1 583.9" style="enable-background:new 0 0 969.1 583.9;" xml:space="preserve">
<style type="text/css">
	.st0{fill:#E8918C;}
	.st1{fill:#842024;}
	.st2{fill:#AF2023;}
	.st3{fill:#991D1F;}
	.st4{fill:#091D23;}
	.st5{fill:#650F0E;}
	.st6{fill:#052C3A;}
	.st7{fill:#9B1D1F;}
	.st8{fill:#A06D3B;}
	.st9{fill:#C02226;}
	.st10{fill:#7C552F;}
	.st11{fill:#7D552F;}
	.st12{fill:none;stroke:#FFFFFF;stroke-width:2;stroke-miterlimit:10;}
	.st13{fill:#FFFFFF;}
</style>
<g id="Layer_2_1_">
</g>
<g id="Layer_4_copy">
	<g>
		<g>
			<g>
				<circle class="st0" cx="380.5" cy="395.9" r="8.5"/>
				<circle class="st0" cx="380.5" cy="442.6" r="8.5"/>
				<circle class="st0" cx="380.5" cy="489.4" r="8.5"/>
			</g>
			<g>
				<circle class="st0" cx="338.2" cy="395.9" r="8.5"/>
				<circle class="st0" cx="338.2" cy="442.6" r="8.5"/>
				<circle class="st0" cx="338.2" cy="489.4" r="8.5"/>
			</g>
			<g>
				<circle class="st0" cx="295.9" cy="395.9" r="8.5"/>
				<circle class="st0" cx="295.9" cy="442.6" r="8.5"/>
				<circle class="st0" cx="295.9" cy="489.4" r="8.5"/>
			</g>
			<g>
				<circle class="st0" cx="253.6" cy="395.9" r="8.5"/>
				<circle class="st0" cx="253.6" cy="442.6" r="8.5"/>
				<circle class="st0" cx="253.6" cy="489.4" r="8.5"/>
			</g>
			<g>
				<circle class="st0" cx="211.3" cy="395.9" r="8.5"/>
				<circle class="st0" cx="211.3" cy="442.6" r="8.5"/>
				<circle class="st0" cx="211.3" cy="489.4" r="8.5"/>
			</g>
			<g>
				<circle class="st0" cx="169" cy="395.9" r="8.5"/>
				<circle class="st0" cx="169" cy="442.6" r="8.5"/>
				<circle class="st0" cx="169" cy="489.4" r="8.5"/>
			</g>
			<g>
				<circle class="st0" cx="126.7" cy="395.9" r="8.5"/>
				<circle class="st0" cx="126.7" cy="442.6" r="8.5"/>
				<circle class="st0" cx="126.7" cy="489.4" r="8.5"/>
			</g>
			<g>
				<circle class="st0" cx="84.4" cy="395.9" r="8.5"/>
				<circle class="st0" cx="84.4" cy="442.6" r="8.5"/>
				<circle class="st0" cx="84.4" cy="489.4" r="8.5"/>
			</g>
			<g>
				<circle class="st0" cx="42.1" cy="395.9" r="8.5"/>
				<circle class="st0" cx="42.1" cy="442.6" r="8.5"/>
				<circle class="st0" cx="42.1" cy="489.4" r="8.5"/>
			</g>
		</g>
	</g>
	<g>
		<g>
			<g>
				<circle class="st0" cx="914.7" cy="67.9" r="8.5"/>
				<circle class="st0" cx="914.7" cy="114.6" r="8.5"/>
				<circle class="st0" cx="914.7" cy="161.3" r="8.5"/>
				<circle class="st0" cx="914.7" cy="208.1" r="8.5"/>
				<circle class="st0" cx="914.7" cy="254.8" r="8.5"/>
			</g>
			<g>
				<circle class="st0" cx="872.4" cy="67.9" r="8.5"/>
				<circle class="st0" cx="872.4" cy="114.6" r="8.5"/>
				<circle class="st0" cx="872.4" cy="161.3" r="8.5"/>
				<circle class="st0" cx="872.4" cy="208.1" r="8.5"/>
				<circle class="st0" cx="872.4" cy="254.8" r="8.5"/>
			</g>
			<g>
				<circle class="st0" cx="830.1" cy="67.9" r="8.5"/>
				<circle class="st0" cx="830.1" cy="114.6" r="8.5"/>
				<circle class="st0" cx="830.1" cy="161.3" r="8.5"/>
				<circle class="st0" cx="830.1" cy="208.1" r="8.5"/>
				<circle class="st0" cx="830.1" cy="254.8" r="8.5"/>
			</g>
			<g>
				<circle class="st0" cx="787.8" cy="67.9" r="8.5"/>
				<circle class="st0" cx="787.8" cy="114.6" r="8.5"/>
				<circle class="st0" cx="787.8" cy="161.3" r="8.5"/>
				<circle class="st0" cx="787.8" cy="208.1" r="8.5"/>
				<circle class="st0" cx="787.8" cy="254.8" r="8.5"/>
			</g>
			<g>
				<circle class="st0" cx="745.5" cy="67.9" r="8.5"/>
				<circle class="st0" cx="745.5" cy="114.6" r="8.5"/>
				<circle class="st0" cx="745.5" cy="161.3" r="8.5"/>
				<circle class="st0" cx="745.5" cy="208.1" r="8.5"/>
				<circle class="st0" cx="745.5" cy="254.8" r="8.5"/>
			</g>
			<g>
				<circle class="st0" cx="703.2" cy="67.9" r="8.5"/>
				<circle class="st0" cx="703.2" cy="114.6" r="8.5"/>
				<circle class="st0" cx="703.2" cy="161.3" r="8.5"/>
				<circle class="st0" cx="703.2" cy="208.1" r="8.5"/>
				<circle class="st0" cx="703.2" cy="254.8" r="8.5"/>
			</g>
			<g>
				<circle class="st0" cx="660.9" cy="67.9" r="8.5"/>
				<circle class="st0" cx="660.9" cy="114.6" r="8.5"/>
				<circle class="st0" cx="660.9" cy="161.3" r="8.5"/>
				<circle class="st0" cx="660.9" cy="208.1" r="8.5"/>
				<circle class="st0" cx="660.9" cy="254.8" r="8.5"/>
			</g>
			<g>
				<circle class="st0" cx="618.6" cy="67.9" r="8.5"/>
				<circle class="st0" cx="618.6" cy="114.6" r="8.5"/>
				<circle class="st0" cx="618.6" cy="161.3" r="8.5"/>
				<circle class="st0" cx="618.6" cy="208.1" r="8.5"/>
				<circle class="st0" cx="618.6" cy="254.8" r="8.5"/>
			</g>
			<g>
				<circle class="st0" cx="576.3" cy="67.9" r="8.5"/>
				<circle class="st0" cx="576.3" cy="114.6" r="8.5"/>
				<circle class="st0" cx="576.3" cy="161.3" r="8.5"/>
				<circle class="st0" cx="576.3" cy="208.1" r="8.5"/>
				<circle class="st0" cx="576.3" cy="254.8" r="8.5"/>
			</g>
			<g>
				<circle class="st0" cx="534" cy="67.9" r="8.5"/>
				<circle class="st0" cx="534" cy="114.6" r="8.5"/>
				<circle class="st0" cx="534" cy="161.3" r="8.5"/>
				<circle class="st0" cx="534" cy="208.1" r="8.5"/>
				<circle class="st0" cx="534" cy="254.8" r="8.5"/>
			</g>
		</g>
		<g>
			<g>
				<circle class="st0" cx="914" cy="254.7" r="8.5"/>
				<circle class="st0" cx="914" cy="301.4" r="8.5"/>
				<circle class="st0" cx="914" cy="348.2" r="8.5"/>
				<circle class="st0" cx="914" cy="394.9" r="8.5"/>
				<circle class="st0" cx="914" cy="441.6" r="8.5"/>
			</g>
			<g>
				<circle class="st0" cx="871.7" cy="254.7" r="8.5"/>
				<circle class="st0" cx="871.7" cy="301.4" r="8.5"/>
				<circle class="st0" cx="871.7" cy="348.2" r="8.5"/>
				<circle class="st0" cx="871.7" cy="394.9" r="8.5"/>
				<circle class="st0" cx="871.7" cy="441.6" r="8.5"/>
			</g>
			<g>
				<circle class="st0" cx="829.4" cy="254.7" r="8.5"/>
				<circle class="st0" cx="829.4" cy="301.4" r="8.5"/>
				<circle class="st0" cx="829.4" cy="348.2" r="8.5"/>
				<circle class="st0" cx="829.4" cy="394.9" r="8.5"/>
				<circle class="st0" cx="829.4" cy="441.6" r="8.5"/>
			</g>
			<g>
				<circle class="st0" cx="787.1" cy="254.7" r="8.5"/>
				<circle class="st0" cx="787.1" cy="301.4" r="8.5"/>
				<circle class="st0" cx="787.1" cy="348.2" r="8.5"/>
				<circle class="st0" cx="787.1" cy="394.9" r="8.5"/>
				<circle class="st0" cx="787.1" cy="441.6" r="8.5"/>
			</g>
			<g>
				<circle class="st0" cx="744.8" cy="254.7" r="8.5"/>
				<circle class="st0" cx="744.8" cy="301.4" r="8.5"/>
				<circle class="st0" cx="744.8" cy="348.2" r="8.5"/>
				<circle class="st0" cx="744.8" cy="394.9" r="8.5"/>
				<circle class="st0" cx="744.8" cy="441.6" r="8.5"/>
			</g>
			<g>
				<circle class="st0" cx="702.5" cy="254.7" r="8.5"/>
				<circle class="st0" cx="702.5" cy="301.4" r="8.5"/>
				<circle class="st0" cx="702.5" cy="348.2" r="8.5"/>
				<circle class="st0" cx="702.5" cy="394.9" r="8.5"/>
				<circle class="st0" cx="702.5" cy="441.6" r="8.5"/>
			</g>
			<g>
				<circle class="st0" cx="660.2" cy="254.7" r="8.5"/>
				<circle class="st0" cx="660.2" cy="301.4" r="8.5"/>
				<circle class="st0" cx="660.2" cy="348.2" r="8.5"/>
				<circle class="st0" cx="660.2" cy="394.9" r="8.5"/>
				<circle class="st0" cx="660.2" cy="441.6" r="8.5"/>
			</g>
			<g>
				<circle class="st0" cx="617.9" cy="254.7" r="8.5"/>
				<circle class="st0" cx="617.9" cy="301.4" r="8.5"/>
				<circle class="st0" cx="617.9" cy="348.2" r="8.5"/>
				<circle class="st0" cx="617.9" cy="394.9" r="8.5"/>
				<circle class="st0" cx="617.9" cy="441.6" r="8.5"/>
			</g>
			<g>
				<circle class="st0" cx="575.6" cy="254.7" r="8.5"/>
				<circle class="st0" cx="575.6" cy="301.4" r="8.5"/>
				<circle class="st0" cx="575.6" cy="348.2" r="8.5"/>
				<circle class="st0" cx="575.6" cy="394.9" r="8.5"/>
				<circle class="st0" cx="575.6" cy="441.6" r="8.5"/>
			</g>
			<g>
				<circle class="st0" cx="533.3" cy="254.7" r="8.5"/>
				<circle class="st0" cx="533.3" cy="301.4" r="8.5"/>
				<circle class="st0" cx="533.3" cy="348.2" r="8.5"/>
				<circle class="st0" cx="533.3" cy="394.9" r="8.5"/>
				<circle class="st0" cx="533.3" cy="441.6" r="8.5"/>
			</g>
		</g>
	</g>
</g>
<g id="Layer_1_1_">
	<g>
		<path class="st1" d="M520.6,328.3c0,0-25.8-28.5,17.9-54.9c0,0-14-24.1,8.5-39.8c0,0-29.7-35.2,10.1-62.3c0,0-21.5-46.6,33.2-76
			c0,0,55.7-39.4,91,17.6c0,0,44.3,3.9,25.4,67.8c0,0,48.6,8.8,10.4,67.8c0,0,20.5,2.9,16.1,24.1
			C728.9,293.9,883.7,349.3,520.6,328.3z"/>
		<path class="st2" d="M529.2,540.8c-29.2,0.3-58.4,0.3-87.6,0c4.1-10.7,77.7-216.5,80.5-220.6c9.7-14.1,23.8-22.3,38.8-29.5
			c1.4-0.7,2.9-0.9,4.4-0.3c0.7,0.3,1.6,0.8,1.6,1.5c0.5,6.2,5.4,8.4,9.9,11c15.2,8.6,30.5,16.8,47.3,21.7c4.3,1.3,8.7,1.9,13.3,1.4
			c5.1-0.5,6.9,1,7.5,6c1.7,13,2.3,26,3.4,39.1c1.4,17.1,2.7,34.2,4.1,51.4c1.2,14.7,2.3,29.4,3.4,44.1c0.2,2.5-0.5,4.8-2.7,6.4
			c-1.8,1.5-4,2-6.1,2.7c-15.6,4.5-30.8,10.5-46.4,15.2c-17.9,5.4-30.3,17.2-40.7,31.8c-2.9,4.1-5.6,8.4-8.1,12.8
			c-1.2,2.1-2.6,4.1-4.8,5.3c-5.2,0-10.4,0-15.6,0c-1.2-6.6,1-12.9,2-19.3c2.6-16.5,5.5-33,8.7-49.4c3.7-19,7.3-38,11.2-57
			c0.3-1.2,0.3-2.6,0.6-2.8c-1.5,6.9-21.7,115.3-22.5,122.3C531.2,536.8,531,539.1,529.2,540.8z"/>
		<path class="st3" d="M835.9,309.4c-8-4.5-12.7-11.9-16.9-19.7c-4.6-11.2-8-22.8-10-34.8c-2.4-14.8-1.8-29.7-2.1-44.6
			c-0.5-1.9-0.4-4-2.1-5.5c-6.8,1-10.8,5.6-13.9,11.1c-4.6,8.1-8.2,16.8-12,25.3c-4.6,10.4-9.2,20.9-13.6,31.4
			c-1.3,3.1-2.7,4.2-6.3,3.3c-3.9-1.1-8.2-0.6-12.2-1.6c-5.3-1.3-10.9-0.1-16-2.2c-10-3.4-20.1-5.2-30.3-1c-2.4,2.1-2.3,5-2.4,7.7
			c-0.1,5.8,0,11.6-0.1,17.4c0,2.6-0.7,4.8-2.9,6.3c-9.3,6.2-18.1,13.2-27.9,18.6c-3.7,2-7.5,3.1-11.8,2.8c-3.8-0.2-5.9-1.7-5.8-5.8
			c0.1-4.1,0.2-8.2-1.3-12.2c-2.4-5-1.6-10.3-1.4-15.5c0.3-6.6-2.5-11.1-8.1-14.1c-8.9-4.8-18.4-8.4-28.4-10.4
			c-9.6-2.9-19.4-5.3-29.3-7.1c-2.7-0.5-5.5-1.3-8.2,0.2c-1.1,0.8-1.9,1.8-2.3,3.1c-2.6,9.6-4.9,19.3-6.5,29.1
			c0.9,0.2,2.3,0.4,1.8,1.5c-2.3,5.5,1.5,7.3,5.3,9.3c1.3,0.7,2.7,1.3,4,2.1c14,8.7,28.8,15.9,44.3,21.3c6.2,2.2,12.8,4.4,19.7,2.1
			c2.6-0.9,3.6,0.5,3.8,3.2c0.4,6.1,0.6,12.3,1.4,18.4c1.4,11.3,1.9,22.6,2.8,33.9c0.6,7,1.2,14.1,1.7,21.2c0.4,5.4,0.3,10.8,1,16.1
			c1.1,7.7,1.3,15.6,2.1,23.3c0.8,7.4,0.5,14.9,2,22.2c0.5,2.5,0.4,4.9-2.1,6.4c1.3,2,3.2,2,5.2,1.9c1.3-0.3,2.4-0.6,3.8-0.3
			c28.1,6,56.1,12,83.6,20.3c1.9,0.2,3.6,0.8,5.4,1.3c5.8,1.7,10.9,4.8,16.7,6.3c1.4-0.7,1-1.8,0.7-2.8c-0.9-2.6-2-5.2-2.9-7.9
			c-12.3-35.4-24.7-70.9-36.9-106.4c-1.3-3.8-3.2-7.4-3.5-12.1c9.3,2.3,18.1,4.2,26.9,6.6c7.8,2.1,15.1,1.9,22.3-2
			c5.5-3,10.4-6.7,14.9-11c8.1-7.7,15.9-15.9,23.5-24.2c8.9-9.8,18.1-19.4,27.2-29.1C838.4,311,837.2,310.1,835.9,309.4z"/>
		<path class="st4" d="M657.2,471.8c5.1-1.3,9.9,1,14.7,2c21.6,4.6,43.2,9.5,64.5,15.5c3,0.8,6.2,1.3,8.8,3.2
			c5,3.7,8.3,8.4,8.9,14.7c6.7,11.2,13.3,22.3,20,33.5c-18.9,0.1-37.8,0.2-56.7,0.2c-8.4,0-16.8-0.1-25.2-0.2
			c-2.5-0.9-3.8-2.9-4.9-5.1c-9.4-18.9-19.7-37.3-28.7-56.4C657.6,476.9,655.8,474.6,657.2,471.8z"/>
		<path class="st5" d="M818.3,291.5c1.7-1.4,1.9-3.5,2.6-5.4c6.2-17.5,12.4-35,18.7-52.5c0.2-0.7,0.7-1.3,1.1-1.9
			c5.2,8.6,8,18.1,9.7,27.8c2.3,12.4,2.9,24.8-0.7,37.1c-1.9,6.5-4.7,12.6-11.1,16.1C828.8,308.6,822.3,301.2,818.3,291.5z"/>
		<path class="st5" d="M754.2,507.2c-3.3-4.7-6.3-9.6-8.9-14.7c7.7,1.6,15.6,2.9,21.4,9.1C762.7,504.1,758.3,505.4,754.2,507.2z"/>
		<path class="st5" d="M804.8,204.9c0,1.9,0,3.7,0,5.6c1.2-1.8,4.6-3.5,2.5-6C807,204.5,805.2,204.8,804.8,204.9z"/>
		<path class="st6" d="M657.2,471.8c11.1,23.2,23.6,45.9,35.1,68.9c-2.1,0.1-4.1,0.2-6.2,0.2c-44.3,0-88.6,0-133,0
			c-2.1,0-4.1-0.1-6.2-0.2c8.1-16.4,18.3-31.2,33-42.4c5.9-4.5,12.9-6.7,19.7-9.1c17.2-6.2,34.4-12.1,52-17.1
			C653.6,472.1,655.4,471.9,657.2,471.8z"/>
		<path class="st7" d="M529.2,540.8c2-16,4.2-32,7.2-47.9c4-21.6,8.4-43,13.2-64.4c1.4-6.4,2.4-13,5.1-20.3
			c0.8,4.9-0.8,8.2-1.4,11.6c-2.7,15.9-5.5,31.8-8.3,47.7c-1.9,11-3.9,21.9-5.8,32.9c-2.3,12.8-4.5,25.6-6.8,38.4
			c-0.1,0.7-0.6,1.4-0.9,2C530.7,540.8,529.9,540.8,529.2,540.8z"/>
		<path class="st8" d="M612.6,244.3c1.8-5.1,1.7-9.6-2.8-13.6c-3.5-3-4.9-7.5-6.2-11.7c-1.1-3.3-2.5-5-6-3c-6.3,3.6-11,1.8-15.4-3.6
			c-2.5-3-2.7-4.6-2.8-9.5c0.3-0.7-1.1-7.9,7.9-11.4c1.4-0.3,2.8-1,4.7-1.7c-1.9-8-3.9-15.9-5.7-23.8c-1.7-7.5,0.8-14.4,4.5-20.7
			c2.1-3.7,6.6-4.3,11-2.6c5.1,1.9,9.1,5.2,12.8,8.9c9.5,9.4,21.5,13.1,33.9,16c2.9,0.7,5.9,0.9,8.8,1.3c2.2,1.6,3.4,3.9,4.4,6.4
			c2.3,5.9,4.6,11.9,6.9,17.8c7.4,19.4,2.4,37.1-7.3,54.2c-1.7,3-4.6,4.6-8,4.4c-10.9-0.8-21.6-2.4-30.5-9.4c0.1,0.1-0.1,0,0,0
			c10.5,8.9,20.5,18.1,30.1,27.8c1.8,1.8,3.9,3.7,2.8,6.8c-7.3,5-7.8,12.3-7.3,20.2c0.2,3.4,1,7.2-2.1,10c-1.8-1.1-1.2-3-1.2-4.6
			c-0.1-4.7-0.1-9.4,0-14c0.1-3.7-1.4-6.4-4.5-8.4c-8.2-5.5-17.5-8.3-26.8-11.1c-1.2-0.4-2.5-0.7-3.7-1.3c-3.1-3.2-1.4-7.1-1-10.5
			C609.7,252.8,608.9,247.9,612.6,244.3z"/>
		<path class="st9" d="M646.2,307.1c0-6.1,0.4-12.3-0.1-18.4c-0.4-5.5,1.9-8.8,6.3-11.2c1-0.5,1.8-1.3,2.7-1.9
			c1-2.6,3.1-3.5,5.6-3.9c10.2-4.9,21.1-7.3,31.9-10.1c2.2-0.5,4.4-1.2,6.4,0.5c2.2,3.2,0.5,6.8,1.1,10.1c0,8.6,0,17.2,0,25.7
			c0,1.8,0.4,3.7-1.7,5c-11.5,7.1-21.8,16.2-34.2,22.1c-1.7,0.8-3.5,1.2-5.4,1.2c-10.9,0.3-11.6-0.3-11.7-11
			C647.2,312.5,648.2,309.6,646.2,307.1z"/>
		<path class="st5" d="M612.6,244.3c-0.1,7.9-2,15.6-2.5,23.4c-9.1-2.1-18.1-4.2-27.2-6.2c-3.3-0.7-6.6-1.1-9.9-1.7
			c0.7-5.1,4.6-7.7,8.6-9.6c8.1-3.9,16.8-6,25.8-7.1C609.2,242.8,611.2,242.4,612.6,244.3z"/>
		<path class="st9" d="M668.3,368.9c-4.6,0-8.5-3.4-8.6-7.7c-0.1-4.9,3.3-9.1,8.1-8.9c5.1,0.1,8.8,3,8.8,8.8
			C676.5,366.1,673.6,368.9,668.3,368.9z"/>
		<path class="st9" d="M672.4,389.2c4.6-0.1,8.5,3.4,8.6,7.7c0.1,5-3.8,9.2-8.5,9.2c-4.6-0.1-8.3-4-8.3-8.8
			C664.2,392.9,667.9,389.2,672.4,389.2z"/>
		<path class="st10" d="M660.8,273.2c-1.9,0.8-3.7,1.6-5.6,2.3c-5.4-6.2-11.3-11.9-17.5-17.3s-12.1-11.1-17.4-17.5l0,0
			c2.5-0.5,4.2,1.4,6.2,2.3c7.6,3.4,15.5,5.2,23.7,6.6c6.2,1,7.8,0.1,10.7-5.5c6-11.4,9.7-23.4,9.1-36.5c-0.2-4.6-1.5-8.8-3.1-13
			c-2.9-7.7-6.1-15.3-9.1-22.9c-0.3-0.8-0.3-1.8-0.5-2.7c6.3,1.3,12.6,1.1,19,1c3-0.1,5,0.7,6,3.7c2.7,7.4,5.9,14.6,8.1,22.1
			c2.3,7.8,0.3,15.5-2.3,23c-3.2,8.9-8.8,16.4-14.3,24c-1.1,1.5-3.3,1.8-4.2,3.7c-1,7.9-3.9,15.4-5.9,23.1
			C663.4,271,662,272.1,660.8,273.2z"/>
		<path class="st5" d="M660.8,273.2c1.9-7.4,3.8-14.8,5.8-22.2c0.5-1.8,0.3-4.3,3.1-4.8c9.5,0.8,18,4.4,25.8,9.7
			c2.1,1.4,3.2,3.6,3.5,6.1C686.1,265.1,673.3,268.7,660.8,273.2z"/>
		<path class="st11" d="M596.6,208.8c-2.6,0.4-4.2,2.2-6.7,1c-4.1-2.1-5.3-5.9-3-10c0.9-1.5,2.3-1.7,3.8-1.7c1.6,0,2.2,0.8,2.7,2.2
			C594.3,202.9,595.4,205.4,596.6,208.8z"/>
		<path class="st10" d="M620.3,240.7c-0.2-0.2-0.3-0.3-0.5-0.5c0.1,0,0.2,0,0.3,0.1C620.2,240.5,620.2,240.6,620.3,240.7
			L620.3,240.7z"/>
		<path class="st11" d="M908.6,157.2l-22,4.4l-1-4.6c39-26.7,37.8-32.3,37.8-32.3c3.3-13.7-17.9,4.2-17.9,4.2
			c-10.8,6-26.5,18-26.5,18l-4.2-3.7l16.3-21.5c14.7-14.5,15.5-24,15.5-24c1-9.1-8.3-1.6-8.3-1.6l-10.8,11.7L866,133.3l-2.1-3.4
			c3.6-7.5,14.5-40.1,14.5-40.1c1.5-11.9-5.7-4.6-5.7-4.6l-7,13.2l-13,23.5c-5.6,10.9-14.3,15.7-17.7,17.2c-0.3-0.1-0.7-0.2-1.4-0.3
			c-3.8-0.5-5.4-5-5.4-5c-3.6-27.6-10.3-24.8-10.3-24.8c-7-3.6-4.6,4.7-4.6,4.7s4.7,10.4,3.6,22.2c0,0.3,0,0.6-0.1,0.8
			c-0.9,11.9,1.7,31.8,1.7,31.8s-12,38.4-12,38.6c-1.2,2.2-0.8,2.1-1.7,3.1c-0.4,17-0.3,34,3.3,50.7c2.1,9.9,4.4,19.8,10,28.6l0.1,2
			l0.5-1.9c0.8,4.8,3.6-3.1,4.3-5.3c5.5-16,11.3-31.9,16.9-47.9c0.8-2.2,1-4.3,0.7-6.6c0.6-2.2,1.3-4.5,2-6.6c-0.1,0-0.2,0-0.4,0
			l7.8-21.9c19.2-11.2,22.8-17.1,22.8-17.1c2.8-6.4,11.4-10.1,11.4-10.1c24.9-6.7,37.3-12.6,37.3-12.6
			C932.5,152,908.6,157.2,908.6,157.2z"/>
	</g>
</g>
<line class="st12" x1="70" y1="319.2" x2="485.9" y2="319.2"/>
<g>
	<g>
		<line class="st12" x1="274" y1="318.4" x2="274" y2="565.9"/>
		<g>
			<polygon class="st13" points="264,563 274,580.3 283.9,563 			"/>
		</g>
	</g>
</g>
<g>
	<path class="st13" d="M93.6,234.3h-11l-2.2,5.1h-4.2l9.9-21.9h4l9.9,21.9h-4.3L93.6,234.3z M92.2,231.1l-4.1-9.6l-4.1,9.6H92.2z"/>
	<path class="st13" d="M103.4,217.5h9.6c7.1,0,12,4.4,12,11s-4.9,11-12,11h-9.6V217.5z M112.8,236c4.9,0,8.1-3,8.1-7.5
		s-3.2-7.5-8.1-7.5h-5.3v15H112.8z"/>
	<path class="st13" d="M143.8,234.3h-11l-2.2,5.1h-4.2l9.9-21.9h4l9.9,21.9H146L143.8,234.3z M142.4,231.1l-4.1-9.6l-4.1,9.6H142.4z
		"/>
	<path class="st13" d="M172,225.3c0,4.8-3.6,7.8-9.3,7.8h-4.9v6.3h-4.1v-21.9h9C168.4,217.5,172,220.4,172,225.3z M167.9,225.3
		c0-2.8-1.8-4.4-5.4-4.4h-4.8v8.7h4.8C166,229.6,167.9,228,167.9,225.3z"/>
	<path class="st13" d="M181.7,220.9h-7.3v-3.4H193v3.4h-7.3v18.5h-4.1v-18.5H181.7z"/>
	<path class="st13" d="M209.9,234.3h-11l-2.2,5.1h-4.2l9.9-21.9h4l9.9,21.9H212L209.9,234.3z M208.5,231.1l-4.1-9.6l-4.1,9.6H208.5z
		"/>
	<path class="st13" d="M239.2,233.5c0,3.8-2.9,6-8.6,6h-10.9v-21.9H230c5.3,0,8.1,2.2,8.1,5.7c0,2.3-1.1,3.9-2.8,4.8
		C237.6,228.8,239.2,230.6,239.2,233.5z M223.8,220.7v6h5.8c2.8,0,4.4-1,4.4-3s-1.6-3-4.4-3H223.8z M235.1,233.1
		c0-2.2-1.7-3.2-4.7-3.2h-6.6v6.3h6.6C233.4,236.2,235.1,235.3,235.1,233.1z"/>
	<path class="st13" d="M244.1,217.5h4.1V236h11.5v3.4h-15.5v-21.9H244.1z"/>
	<path class="st13" d="M279.9,236v3.4h-16.4v-21.9h16v3.4h-11.9v5.7h10.6v3.4h-10.6v6L279.9,236L279.9,236z"/>
	<path class="st13" d="M288.8,237c0,0.7-0.2,1.3-0.7,2.7l-1.6,4.4H284l1.3-4.8c-0.9-0.4-1.5-1.2-1.5-2.3c0-1.6,1.1-2.6,2.5-2.6
		C287.8,234.4,288.8,235.5,288.8,237z"/>
	<path class="st13" d="M301,237.1l1.4-3.2c1.8,1.4,4.5,2.4,7.2,2.4c3.4,0,4.9-1.2,4.9-2.9c0-4.7-13-1.6-13-9.8
		c0-3.5,2.8-6.5,8.8-6.5c2.6,0,5.4,0.7,7.3,1.9l-1.3,3.2c-2-1.2-4.1-1.7-6-1.7c-3.4,0-4.8,1.3-4.8,3c0,4.7,13,1.6,13,9.7
		c0,3.5-2.9,6.5-8.9,6.5C306.3,239.7,302.9,238.7,301,237.1z"/>
	<path class="st13" d="M327.3,220.9H320v-3.4h18.6v3.4h-7.3v18.5h-4.1L327.3,220.9L327.3,220.9z"/>
	<path class="st13" d="M356.7,239.4l-4.5-6.4c-0.3,0-0.6,0-0.8,0h-4.9v6.4h-4.1v-21.9h9c5.8,0,9.3,2.9,9.3,7.8
		c0,3.3-1.7,5.8-4.7,6.9l5,7.2H356.7z M351.2,220.9h-4.8v8.7h4.8c3.6,0,5.4-1.6,5.4-4.4C356.6,222.5,354.7,220.9,351.2,220.9z"/>
	<path class="st13" d="M380,234.3h-11l-2.2,5.1h-4.2l9.9-21.9h4l9.9,21.9h-4.3L380,234.3z M378.7,231.1l-4.1-9.6l-4.1,9.6H378.7z"/>
	<path class="st13" d="M393.2,220.9H386v-3.4h18.6v3.4h-7.3v18.5h-4.1V220.9z"/>
	<path class="st13" d="M424.7,236v3.4h-16.4v-21.9h16v3.4h-11.9v5.7H423v3.4h-10.6v6L424.7,236L424.7,236z"/>
	<path class="st13" d="M444.7,228.2h3.9v8.7c-2.3,1.8-5.5,2.8-8.6,2.8c-6.8,0-11.8-4.7-11.8-11.3c0-6.5,5-11.3,11.9-11.3
		c3.7,0,6.7,1.2,8.8,3.6l-2.6,2.5c-1.7-1.7-3.7-2.5-6-2.5c-4.7,0-8,3.2-8,7.7c0,4.4,3.3,7.7,7.9,7.7c1.6,0,3.1-0.3,4.5-1.1
		L444.7,228.2L444.7,228.2z"/>
	<path class="st13" d="M454.5,217.5h4.1v21.9h-4.1V217.5z"/>
	<path class="st13" d="M463.5,228.5c0-6.5,5-11.3,11.7-11.3c3.6,0,6.6,1.3,8.7,3.7l-2.6,2.5c-1.6-1.7-3.6-2.6-5.9-2.6
		c-4.5,0-7.8,3.2-7.8,7.7s3.3,7.7,7.8,7.7c2.3,0,4.3-0.8,5.9-2.6l2.6,2.5c-2,2.4-5.1,3.7-8.7,3.7C468.6,239.7,463.5,235,463.5,228.5
		z"/>
	<path class="st13" d="M102.8,255.9c0,4.8-3.6,7.8-9.3,7.8h-4.9v6.3h-4.1v-21.9h9C99.2,248.1,102.8,251.1,102.8,255.9z M98.7,255.9
		c0-2.8-1.8-4.4-5.4-4.4h-4.8v8.7h4.8C96.9,260.3,98.7,258.7,98.7,255.9z"/>
	<path class="st13" d="M106.2,259.1c0-6.5,5-11.3,11.8-11.3s11.8,4.8,11.8,11.3s-5,11.3-11.8,11.3S106.2,265.6,106.2,259.1z
		 M125.7,259.1c0-4.5-3.3-7.7-7.7-7.7c-4.4,0-7.7,3.2-7.7,7.7s3.3,7.7,7.7,7.7C122.5,266.8,125.7,263.6,125.7,259.1z"/>
	<path class="st13" d="M132.9,267.7l1.4-3.2c1.8,1.4,4.5,2.4,7.2,2.4c3.4,0,4.9-1.2,4.9-2.9c0-4.7-13-1.6-13-9.8
		c0-3.5,2.8-6.5,8.8-6.5c2.6,0,5.4,0.7,7.3,1.9l-1.3,3.2c-2-1.2-4.1-1.7-6-1.7c-3.4,0-4.8,1.3-4.8,3c0,4.7,13,1.6,13,9.7
		c0,3.5-2.9,6.5-8.9,6.5C138.2,270.4,134.7,269.3,132.9,267.7z"/>
	<path class="st13" d="M155.1,248.1h4.1V270h-4.1V248.1z"/>
	<path class="st13" d="M170.1,251.6h-7.3v-3.4h18.6v3.4h-7.3v18.5H170v-18.5H170.1z"/>
	<path class="st13" d="M185.1,248.1h4.1V270h-4.1V248.1z"/>
	<path class="st13" d="M215.6,248.1L206,270h-4l-9.6-21.9h4.4l7.3,16.9l7.4-16.9H215.6z"/>
	<path class="st13" d="M218.5,248.1h4.1V270h-4.1V248.1z"/>
	<path class="st13" d="M233.5,251.6h-7.3v-3.4h18.6v3.4h-7.3v18.5h-4.1v-18.5H233.5z"/>
	<path class="st13" d="M259.6,262.3v7.7h-4.1v-7.7l-8.6-14.3h4.4l6.4,10.7l6.5-10.7h4L259.6,262.3z"/>
	<path class="st13" d="M273.7,267.7c0,0.7-0.2,1.3-0.7,2.7l-1.6,4.4h-2.5l1.3-4.8c-0.9-0.4-1.5-1.2-1.5-2.3c0-1.6,1.1-2.6,2.5-2.6
		C272.7,265.1,273.7,266.1,273.7,267.7z"/>
	<path class="st13" d="M291.8,251.5v6.7h10.6v3.4h-10.6v8.4h-4.1v-21.9h16v3.4H291.8z"/>
	<path class="st13" d="M308.3,248.1h4.1v18.5h11.5v3.4h-15.5v-21.9H308.3z"/>
	<path class="st13" d="M344.1,266.6v3.4h-16.4v-21.9h16v3.4h-11.9v5.7h10.6v3.4h-10.6v6H344.1z"/>
	<path class="st13" d="M362.8,270.1l-6-8.3l-5.9,8.3h-4.6l8.1-11.2l-7.7-10.7h4.6l5.6,7.8l5.5-7.8h4.4l-7.7,10.6l8.2,11.3
		L362.8,270.1L362.8,270.1z"/>
	<path class="st13" d="M370.6,248.1h4.1V270h-4.1V248.1z"/>
	<path class="st13" d="M400.7,264.1c0,3.8-2.9,6-8.6,6h-10.9v-21.9h10.3c5.3,0,8.1,2.2,8.1,5.7c0,2.3-1.1,3.9-2.8,4.8
		C399.1,259.4,400.7,261.2,400.7,264.1z M385.2,251.3v6h5.8c2.8,0,4.4-1,4.4-3s-1.6-3-4.4-3L385.2,251.3L385.2,251.3z M396.6,263.7
		c0-2.2-1.7-3.2-4.7-3.2h-6.6v6.3h6.6C394.9,266.9,396.6,265.9,396.6,263.7z"/>
	<path class="st13" d="M405.6,248.1h4.1V270h-4.1V248.1z"/>
	<path class="st13" d="M416.2,248.1h4.1v18.5h11.5v3.4h-15.5v-21.9H416.2z"/>
	<path class="st13" d="M435.6,248.1h4.1V270h-4.1V248.1z"/>
	<path class="st13" d="M450.6,251.6h-7.3v-3.4h18.6v3.4h-7.3v18.5h-4.1L450.6,251.6L450.6,251.6z"/>
	<path class="st13" d="M476.6,262.3v7.7h-4.1v-7.7l-8.6-14.3h4.4l6.4,10.7l6.5-10.7h4L476.6,262.3z"/>
	<path class="st13" d="M195.1,286.6c0,4.8-3.6,7.8-9.3,7.8h-4.9v6.3h-4.1v-21.9h9C191.5,278.8,195.1,281.7,195.1,286.6z M191,286.6
		c0-2.8-1.8-4.4-5.4-4.4h-4.8v8.7h4.8C189.1,290.9,191,289.3,191,286.6z"/>
	<path class="st13" d="M214.1,300.7l-4.5-6.4c-0.3,0-0.6,0-0.8,0h-4.9v6.4h-4.1v-21.9h9c5.8,0,9.3,2.9,9.3,7.8
		c0,3.3-1.7,5.8-4.7,6.9l5,7.2H214.1z M208.6,282.2h-4.8v8.7h4.8c3.6,0,5.4-1.6,5.4-4.4C214,283.8,212.1,282.2,208.6,282.2z"/>
	<path class="st13" d="M221.7,289.7c0-6.5,5-11.3,11.8-11.3s11.8,4.8,11.8,11.3s-5,11.3-11.8,11.3S221.7,296.2,221.7,289.7z
		 M241.2,289.7c0-4.5-3.3-7.7-7.7-7.7s-7.7,3.2-7.7,7.7s3.3,7.7,7.7,7.7C237.9,297.4,241.2,294.2,241.2,289.7z"/>
	<path class="st13" d="M269.7,294.7c0,3.8-2.9,6-8.6,6h-10.9v-21.9h10.3c5.3,0,8.1,2.2,8.1,5.7c0,2.3-1.1,3.9-2.8,4.8
		C268.1,290,269.7,291.9,269.7,294.7z M254.3,282v6h5.8c2.8,0,4.4-1,4.4-3s-1.6-3-4.4-3H254.3z M265.6,294.3c0-2.2-1.7-3.2-4.7-3.2
		h-6.6v6.3h6.6C263.9,297.5,265.6,296.5,265.6,294.3z"/>
	<path class="st13" d="M274.7,278.8h4.1v18.5h11.5v3.4h-15.5v-21.9H274.7z"/>
	<path class="st13" d="M310.5,297.3v3.4H294v-21.9h16v3.4h-11.9v5.7h10.6v3.4h-10.6v6H310.5z"/>
	<path class="st13" d="M335.7,300.7v-14.5l-7.2,12h-1.8l-7.2-11.8v14.3h-3.9v-21.9h3.4l8.7,14.5l8.6-14.5h3.4v21.9H335.7z"/>
	<path class="st13" d="M353.5,298.4l1.4-3.2c1.8,1.4,4.5,2.4,7.2,2.4c3.4,0,4.9-1.2,4.9-2.9c0-4.7-13-1.6-13-9.8
		c0-3.5,2.8-6.5,8.8-6.5c2.6,0,5.4,0.7,7.3,1.9l-1.3,3.2c-2-1.2-4.1-1.7-6-1.7c-3.4,0-4.8,1.3-4.8,3c0,4.7,13,1.6,13,9.7
		c0,3.5-2.9,6.5-8.9,6.5C358.7,301,355.3,299.9,353.5,298.4z"/>
	<path class="st13" d="M374.1,289.7c0-6.5,5-11.3,11.8-11.3s11.8,4.8,11.8,11.3s-5,11.3-11.8,11.3S374.1,296.2,374.1,289.7z
		 M393.6,289.7c0-4.5-3.3-7.7-7.7-7.7c-4.4,0-7.7,3.2-7.7,7.7s3.3,7.7,7.7,7.7C390.3,297.4,393.6,294.2,393.6,289.7z"/>
	<path class="st13" d="M402.6,278.8h4.1v18.5h11.5v3.4h-15.5v-21.9H402.6z"/>
	<path class="st13" d="M440.5,278.8l-9.6,21.9h-4l-9.6-21.9h4.4l7.3,16.9l7.4-16.9H440.5z"/>
	<path class="st13" d="M459.8,297.3v3.4h-16.4v-21.9h16v3.4h-11.9v5.7h10.6v3.4h-10.6v6H459.8z"/>
	<path class="st13" d="M479.3,300.7l-4.5-6.4c-0.3,0-0.6,0-0.8,0h-4.9v6.4H465v-21.9h9c5.8,0,9.3,2.9,9.3,7.8c0,3.3-1.7,5.8-4.7,6.9
		l5,7.2H479.3z M473.8,282.2H469v8.7h4.8c3.6,0,5.4-1.6,5.4-4.4C479.2,283.8,477.4,282.2,473.8,282.2z"/>
</g>
<g>
	<path class="st1" d="M70,194.6v-16.6h8.5v16.4c0,5.1,2.1,7.2,5.7,7.2c3.5,0,5.7-2.1,5.7-7.2v-16.4h8.4v16.6c0,9-5.2,14-14.1,14
		S70,203.5,70,194.6z"/>
	<path class="st1" d="M122.5,207.9l-6.2-9.3l-6.1,9.3h-9.7l10.9-15.2l-10.5-14.8h9.6l6,8.7l5.9-8.7h9.2l-10.5,14.5l11.2,15.5H122.5z
		"/>
	<path class="st1" d="M171.4,208.5l-3.4-3c-2.8,2-6.3,3.1-10.1,3.1c-6.9,0-12-3.6-12-8.5c0-3.8,1.9-6.5,6.3-8.8c-2-2-2.9-4-2.9-6
		c0-4.6,4-7.7,10.1-7.7c5.5,0,9.3,2.8,9.3,7.2c0,3.1-1.8,5.4-5.6,7.5l4.4,3.9c0.6-1.3,1-2.7,1.3-4.3l6.6,2c-0.6,2.5-1.5,4.8-2.8,6.8
		l3.2,2.8L171.4,208.5z M163.1,201.1l-6.5-5.7c-1.9,1.2-2.7,2.4-2.7,3.9c0,1.8,1.8,3.1,4.6,3.1C160.2,202.3,161.8,201.9,163.1,201.1
		z M156.8,185.1c0,0.9,0.4,1.7,1.9,3.1c2.3-1.2,3.1-2.2,3.1-3.3c0-1.2-0.8-2-2.4-2C157.7,182.8,156.8,183.8,156.8,185.1z"/>
	<path class="st1" d="M192.1,194.6v-16.6h8.5v16.4c0,5.1,2.1,7.2,5.7,7.2c3.5,0,5.7-2.1,5.7-7.2v-16.4h8.4v16.6c0,9-5.2,14-14.1,14
		C197.4,208.5,192.1,203.5,192.1,194.6z"/>
	<path class="st1" d="M226.1,177.9h8.5v30h-8.5V177.9z"/>
	<path class="st1" d="M277.2,201.4v6.6h-24.1v-30h23.6v6.6h-15.1v5.1h13.3v6.3h-13.3v5.5H277.2z"/>
	<path class="st1" d="M310.5,177.9v30h-7l-13.3-16v16h-8.3v-30h7l13.3,16v-16H310.5z"/>
	<path class="st1" d="M336.6,192.3h7.5v12.4c-3.5,2.5-8.2,3.8-12.6,3.8c-9.6,0-16.6-6.5-16.6-15.6c0-9.1,7-15.6,16.7-15.6
		c5.6,0,10.2,1.9,13.1,5.5l-5.4,4.9c-2.1-2.3-4.4-3.3-7.3-3.3c-5.1,0-8.6,3.4-8.6,8.6c0,5.1,3.4,8.6,8.5,8.6c1.6,0,3.1-0.3,4.6-1
		V192.3z"/>
	<path class="st1" d="M349.6,177.9h8.5v30h-8.5V177.9z"/>
	<path class="st1" d="M392.7,177.9v30h-7l-13.3-16v16h-8.3v-30h7l13.3,16v-16H392.7z"/>
	<path class="st1" d="M422.8,201.4v6.6h-24.1v-30h23.6v6.6h-15.1v5.1h13.3v6.3h-13.3v5.5H422.8z"/>
	<path class="st1" d="M451.6,201.4v6.6h-24.1v-30H451v6.6h-15.1v5.1h13.3v6.3h-13.3v5.5H451.6z"/>
	<path class="st1" d="M469.4,200h-4.6v8h-8.5v-30h13.7c8.2,0,13.3,4.2,13.3,11.1c0,4.4-2.1,7.7-5.9,9.5l6.5,9.4h-9.1L469.4,200z
		 M469.5,184.6h-4.7v8.8h4.7c3.5,0,5.3-1.6,5.3-4.4C474.8,186.2,473.1,184.6,469.5,184.6z"/>
</g>
</svg>
